<svg xmlns="http://www.w3.org/2000/svg" xmlns:xlink="http://www.w3.org/1999/xlink" width="400" zoomAndPan="magnify" viewBox="0 0 300 112.499997" height="150" preserveAspectRatio="xMidYMid meet" version="1.0"><defs><g/><clipPath id="c5e9bff70f"><path d="M 11.863281 26.046875 L 71.597656 26.046875 L 71.597656 85.773438 L 11.863281 85.773438 Z M 11.863281 26.046875 " clip-rule="nonzero"/></clipPath></defs><g clip-path="url(#c5e9bff70f)"><path fill="#e33145" d="M 53.503906 61.125 C 52.605469 60.960938 51.648438 60.945312 50.664062 61.125 C 49.371094 61.351562 48.042969 61.890625 46.824219 62.746094 C 45.601562 63.617188 44.667969 64.691406 44.023438 65.859375 C 43.554688 66.714844 43.246094 67.621094 43.125 68.503906 C 44.011719 68.683594 44.96875 68.683594 45.949219 68.515625 C 47.253906 68.289062 48.570312 67.753906 49.804688 66.882812 C 51.011719 66.011719 51.957031 64.941406 52.605469 63.785156 C 53.070312 62.925781 53.371094 62.019531 53.503906 61.125 Z M 52.460938 36.214844 C 52.675781 36.082031 52.914062 36.011719 53.191406 36.011719 C 53.933594 36.011719 54.542969 36.621094 54.542969 37.359375 L 54.542969 47.277344 C 54.542969 50.375 53.273438 53.1875 51.214844 55.226562 C 49.15625 57.265625 46.332031 58.539062 43.234375 58.539062 L 43.078125 58.539062 L 43.078125 62.519531 C 43.699219 61.804688 44.429688 61.136719 45.242188 60.554688 C 46.789062 59.445312 48.511719 58.753906 50.210938 58.457031 C 51.992188 58.144531 53.789062 58.289062 55.371094 58.847656 L 56.242188 59.160156 L 56.253906 60.101562 C 56.289062 61.769531 55.847656 63.496094 54.972656 65.082031 C 54.148438 66.585938 52.941406 67.992188 51.382812 69.089844 C 49.828125 70.195312 48.105469 70.898438 46.40625 71.1875 C 45.28125 71.386719 44.15625 71.402344 43.066406 71.246094 L 43.066406 83.011719 C 49.359375 82.710938 55.140625 80.28125 59.640625 76.382812 C 64.476562 72.199219 67.828125 66.347656 68.785156 59.625 C 68.894531 58.886719 69.574219 58.371094 70.316406 58.480469 C 71.058594 58.574219 71.574219 59.253906 71.464844 59.992188 C 70.425781 67.382812 66.726562 73.832031 61.414062 78.410156 C 56.136719 83.011719 49.21875 85.75 41.726562 85.75 C 34.195312 85.75 27.292969 82.972656 22.011719 78.421875 C 16.675781 73.796875 12.988281 67.3125 11.960938 59.980469 C 11.863281 59.242188 12.378906 58.5625 13.121094 58.457031 C 13.863281 58.359375 14.542969 58.875 14.640625 59.613281 C 15.574219 66.273438 18.9375 72.164062 23.796875 76.371094 C 28.285156 80.257812 34.042969 82.699219 40.371094 83 L 40.371094 71.234375 C 39.296875 71.386719 38.171875 71.375 37.035156 71.175781 C 35.335938 70.886719 33.609375 70.183594 32.054688 69.078125 C 30.511719 67.980469 29.300781 66.585938 28.464844 65.070312 C 27.589844 63.484375 27.148438 61.757812 27.171875 60.089844 L 27.195312 59.148438 L 28.070312 58.835938 C 29.648438 58.277344 31.433594 58.132812 33.214844 58.445312 C 34.914062 58.742188 36.636719 59.433594 38.195312 60.542969 C 39.007812 61.125 39.738281 61.792969 40.359375 62.507812 L 40.359375 58.527344 L 40.207031 58.527344 C 37.09375 58.527344 34.269531 57.265625 32.222656 55.214844 C 30.175781 53.164062 28.894531 50.351562 28.894531 47.261719 L 28.894531 37.359375 C 28.894531 36.621094 29.503906 36.011719 30.246094 36.011719 C 30.449219 36.011719 30.640625 36.046875 30.808594 36.128906 C 31.15625 36.25 32.316406 36.679688 33.824219 37.335938 C 34.59375 36.238281 35.574219 35.320312 36.710938 34.640625 C 38.195312 33.734375 39.929688 33.234375 41.726562 33.234375 C 43.675781 33.234375 45.554688 33.832031 47.097656 34.867188 C 48.210938 35.617188 49.167969 36.59375 49.898438 37.777344 C 51.226562 36.894531 52.199219 36.355469 52.460938 36.214844 Z M 32.773438 61.125 C 31.804688 60.945312 30.859375 60.960938 29.949219 61.125 C 30.066406 62.019531 30.378906 62.925781 30.847656 63.785156 C 31.480469 64.929688 32.425781 66 33.648438 66.882812 C 34.867188 67.765625 36.183594 68.289062 37.5 68.515625 C 38.46875 68.683594 39.414062 68.683594 40.324219 68.503906 C 40.207031 67.621094 39.894531 66.714844 39.425781 65.859375 C 38.792969 64.703125 37.847656 63.628906 36.625 62.746094 C 35.40625 61.890625 34.078125 61.351562 32.773438 61.125 Z M 14.640625 52.007812 C 14.542969 52.746094 13.863281 53.257812 13.121094 53.164062 C 12.378906 53.054688 11.863281 52.378906 11.960938 51.636719 C 12.882812 45.046875 15.96875 39.132812 20.480469 34.640625 C 24.980469 30.160156 30.917969 27.097656 37.546875 26.164062 C 38.289062 26.058594 38.972656 26.570312 39.066406 27.308594 C 39.175781 28.050781 38.648438 28.730469 37.917969 28.835938 C 31.898438 29.671875 26.5 32.472656 22.394531 36.546875 C 18.289062 40.625 15.492188 46.011719 14.640625 52.007812 Z M 45.542969 28.847656 C 44.800781 28.742188 44.285156 28.0625 44.394531 27.320312 C 44.488281 26.582031 45.171875 26.070312 45.914062 26.179688 C 52.507812 27.097656 58.457031 30.148438 62.992188 34.664062 C 67.46875 39.121094 70.546875 45 71.503906 51.648438 C 71.597656 52.390625 71.082031 53.066406 70.339844 53.175781 C 69.601562 53.269531 68.917969 52.757812 68.808594 52.019531 C 67.960938 45.988281 65.148438 40.636719 61.078125 36.570312 C 56.949219 32.460938 51.527344 29.683594 45.542969 28.847656 Z M 36.328125 38.515625 C 38.769531 39.765625 41.402344 41.421875 42.898438 43.292969 C 44.488281 41.734375 46.164062 40.375 47.660156 39.289062 C 47.136719 38.40625 46.417969 37.667969 45.589844 37.109375 C 44.476562 36.355469 43.136719 35.941406 41.726562 35.941406 C 40.433594 35.941406 39.1875 36.296875 38.109375 36.941406 C 37.453125 37.359375 36.832031 37.882812 36.328125 38.515625 Z M 34.066406 40.386719 C 33.957031 40.363281 33.863281 40.328125 33.765625 40.265625 C 33.695312 40.242188 33.632812 40.207031 33.574219 40.160156 C 32.867188 39.835938 32.199219 39.5625 31.636719 39.324219 L 31.636719 47.277344 C 31.636719 49.625 32.59375 51.769531 34.148438 53.320312 C 34.757812 53.925781 35.453125 54.4375 36.230469 54.84375 C 36.710938 51.257812 38.648438 48.015625 41.03125 45.261719 C 39.90625 43.402344 36.734375 41.625 34.066406 40.386719 Z M 50.269531 40.753906 C 50.199219 40.816406 50.113281 40.875 50.03125 40.921875 C 48.140625 42.234375 45.820312 44.046875 43.785156 46.203125 C 43.699219 46.347656 43.582031 46.476562 43.4375 46.585938 C 41.066406 49.195312 39.140625 52.328125 38.851562 55.726562 C 39.296875 55.796875 39.75 55.832031 40.21875 55.832031 L 43.234375 55.832031 C 45.589844 55.832031 47.746094 54.878906 49.300781 53.332031 C 50.855469 51.78125 51.816406 49.636719 51.816406 47.289062 L 51.816406 39.742188 C 51.359375 40.027344 50.832031 40.363281 50.269531 40.753906 Z M 50.269531 40.753906 " fill-opacity="1" fill-rule="nonzero"/></g><g fill="#000000" fill-opacity="1"><g transform="translate(80.000869, 49.622964)"><g><path d="M 10.4375 -2.296875 C 10.789062 -1.828125 11.101562 -1.457031 11.375 -1.1875 C 11.644531 -0.914062 11.910156 -0.695312 12.171875 -0.53125 C 12.441406 -0.363281 12.726562 -0.203125 13.03125 -0.046875 L 13.03125 0 L 9.28125 0 L 9.28125 -0.296875 L 6 -4.90625 L 3.96875 -4.90625 L 3.96875 -0.984375 C 3.96875 -0.671875 4.097656 -0.453125 4.359375 -0.328125 C 4.617188 -0.210938 4.929688 -0.132812 5.296875 -0.09375 L 5.296875 0 L 0.265625 0 L 0.265625 -0.09375 C 0.617188 -0.132812 0.925781 -0.210938 1.1875 -0.328125 C 1.445312 -0.453125 1.578125 -0.671875 1.578125 -0.984375 L 1.578125 -11.1875 C 1.578125 -11.5 1.445312 -11.71875 1.1875 -11.84375 C 0.925781 -11.96875 0.617188 -12.050781 0.265625 -12.09375 L 0.265625 -12.1875 L 6.828125 -12.1875 C 8.378906 -12.1875 9.582031 -11.921875 10.4375 -11.390625 C 11.300781 -10.859375 11.734375 -10.023438 11.734375 -8.890625 C 11.734375 -8.023438 11.429688 -7.265625 10.828125 -6.609375 C 10.222656 -5.953125 9.394531 -5.476562 8.34375 -5.1875 Z M 3.96875 -11.875 L 3.96875 -5.59375 C 4.894531 -5.320312 5.816406 -5.1875 6.734375 -5.1875 C 7.328125 -5.1875 7.816406 -5.265625 8.203125 -5.421875 C 8.597656 -5.585938 8.890625 -5.890625 9.078125 -6.328125 C 9.273438 -6.765625 9.375 -7.382812 9.375 -8.1875 C 9.375 -8.644531 9.332031 -9.09375 9.25 -9.53125 C 9.164062 -9.96875 9 -10.363281 8.75 -10.71875 C 8.507812 -11.070312 8.15625 -11.351562 7.6875 -11.5625 C 7.226562 -11.769531 6.628906 -11.875 5.890625 -11.875 Z M 3.96875 -11.875 "/></g></g></g><g fill="#000000" fill-opacity="1"><g transform="translate(94.544742, 49.622964)"><g><path d="M 7.5 -12.421875 C 8.4375 -12.421875 9.3125 -12.273438 10.125 -11.984375 C 10.9375 -11.703125 11.644531 -11.285156 12.25 -10.734375 C 12.863281 -10.179688 13.34375 -9.507812 13.6875 -8.71875 C 14.03125 -7.9375 14.203125 -7.0625 14.203125 -6.09375 C 14.203125 -5.113281 14.03125 -4.234375 13.6875 -3.453125 C 13.34375 -2.671875 12.863281 -2.003906 12.25 -1.453125 C 11.644531 -0.898438 10.9375 -0.476562 10.125 -0.1875 C 9.3125 0.101562 8.4375 0.25 7.5 0.25 C 6.550781 0.25 5.671875 0.101562 4.859375 -0.1875 C 4.046875 -0.476562 3.332031 -0.898438 2.71875 -1.453125 C 2.113281 -2.003906 1.640625 -2.671875 1.296875 -3.453125 C 0.953125 -4.234375 0.78125 -5.113281 0.78125 -6.09375 C 0.78125 -7.0625 0.953125 -7.9375 1.296875 -8.71875 C 1.640625 -9.507812 2.113281 -10.179688 2.71875 -10.734375 C 3.332031 -11.285156 4.046875 -11.703125 4.859375 -11.984375 C 5.671875 -12.273438 6.550781 -12.421875 7.5 -12.421875 Z M 8.234375 -0.0625 C 8.929688 -0.0625 9.535156 -0.269531 10.046875 -0.6875 C 10.566406 -1.101562 10.96875 -1.675781 11.25 -2.40625 C 11.53125 -3.132812 11.671875 -3.976562 11.671875 -4.9375 C 11.671875 -5.8125 11.550781 -6.671875 11.3125 -7.515625 C 11.082031 -8.367188 10.742188 -9.140625 10.296875 -9.828125 C 9.859375 -10.515625 9.335938 -11.066406 8.734375 -11.484375 C 8.128906 -11.898438 7.46875 -12.109375 6.75 -12.109375 C 6.050781 -12.109375 5.441406 -11.90625 4.921875 -11.5 C 4.410156 -11.09375 4.015625 -10.523438 3.734375 -9.796875 C 3.453125 -9.066406 3.3125 -8.222656 3.3125 -7.265625 C 3.3125 -6.390625 3.425781 -5.523438 3.65625 -4.671875 C 3.894531 -3.816406 4.234375 -3.046875 4.671875 -2.359375 C 5.117188 -1.671875 5.644531 -1.113281 6.25 -0.6875 C 6.851562 -0.269531 7.515625 -0.0625 8.234375 -0.0625 Z M 8.234375 -0.0625 "/></g></g></g><g fill="#000000" fill-opacity="1"><g transform="translate(111.698085, 49.622964)"><g><path d="M 6.125 -7.28125 C 6.988281 -7.082031 7.6875 -6.835938 8.21875 -6.546875 C 8.757812 -6.253906 9.175781 -5.929688 9.46875 -5.578125 C 9.757812 -5.234375 9.957031 -4.882812 10.0625 -4.53125 C 10.175781 -4.175781 10.234375 -3.835938 10.234375 -3.515625 C 10.234375 -2.804688 10.039062 -2.164062 9.65625 -1.59375 C 9.28125 -1.03125 8.726562 -0.582031 8 -0.25 C 7.28125 0.0820312 6.410156 0.25 5.390625 0.25 C 4.335938 0.25 3.410156 0.0859375 2.609375 -0.234375 C 1.804688 -0.554688 1.171875 -0.941406 0.703125 -1.390625 L 2.296875 -3.9375 C 2.234375 -3.332031 2.300781 -2.785156 2.5 -2.296875 C 2.707031 -1.816406 3 -1.410156 3.375 -1.078125 C 3.75 -0.742188 4.171875 -0.484375 4.640625 -0.296875 C 5.117188 -0.117188 5.601562 -0.03125 6.09375 -0.03125 C 6.601562 -0.03125 7.015625 -0.109375 7.328125 -0.265625 C 7.648438 -0.429688 7.898438 -0.640625 8.078125 -0.890625 C 8.253906 -1.140625 8.375 -1.40625 8.4375 -1.6875 C 8.507812 -1.96875 8.546875 -2.222656 8.546875 -2.453125 C 8.546875 -2.972656 8.421875 -3.378906 8.171875 -3.671875 C 7.921875 -3.972656 7.554688 -4.21875 7.078125 -4.40625 C 6.597656 -4.59375 6.007812 -4.765625 5.3125 -4.921875 C 4.1875 -5.191406 3.3125 -5.546875 2.6875 -5.984375 C 2.070312 -6.429688 1.640625 -6.914062 1.390625 -7.4375 C 1.140625 -7.957031 1.015625 -8.46875 1.015625 -8.96875 C 1.015625 -9.6875 1.203125 -10.300781 1.578125 -10.8125 C 1.960938 -11.332031 2.5 -11.726562 3.1875 -12 C 3.882812 -12.28125 4.703125 -12.421875 5.640625 -12.421875 C 6.648438 -12.421875 7.515625 -12.265625 8.234375 -11.953125 C 8.960938 -11.648438 9.5625 -11.28125 10.03125 -10.84375 L 8.375 -8.296875 C 8.457031 -8.890625 8.40625 -9.425781 8.21875 -9.90625 C 8.039062 -10.382812 7.773438 -10.789062 7.421875 -11.125 C 7.078125 -11.457031 6.675781 -11.710938 6.21875 -11.890625 C 5.757812 -12.078125 5.296875 -12.171875 4.828125 -12.171875 C 4.273438 -12.171875 3.84375 -12.0625 3.53125 -11.84375 C 3.226562 -11.625 3.019531 -11.351562 2.90625 -11.03125 C 2.789062 -10.707031 2.734375 -10.382812 2.734375 -10.0625 C 2.734375 -9.457031 2.890625 -8.972656 3.203125 -8.609375 C 3.515625 -8.253906 3.925781 -7.976562 4.4375 -7.78125 C 4.957031 -7.582031 5.519531 -7.414062 6.125 -7.28125 Z M 6.125 -7.28125 "/></g></g></g><g fill="#000000" fill-opacity="1"><g transform="translate(124.658979, 49.622964)"><g><path d="M 11.03125 -3.703125 L 11.109375 -3.671875 L 10.1875 0 L 10.078125 0.390625 L 9.484375 0 L 0.265625 0 L 0.265625 -0.09375 C 0.617188 -0.21875 0.925781 -0.378906 1.1875 -0.578125 C 1.445312 -0.773438 1.578125 -1.03125 1.578125 -1.34375 L 1.578125 -11.1875 C 1.578125 -11.5 1.445312 -11.71875 1.1875 -11.84375 C 0.925781 -11.96875 0.617188 -12.050781 0.265625 -12.09375 L 0.265625 -12.1875 L 9.828125 -12.1875 L 10.484375 -9.125 L 10.40625 -9.09375 C 9.96875 -9.738281 9.566406 -10.269531 9.203125 -10.6875 C 8.847656 -11.101562 8.441406 -11.410156 7.984375 -11.609375 C 7.523438 -11.804688 6.914062 -11.90625 6.15625 -11.90625 L 3.96875 -11.90625 L 3.96875 -6.234375 L 5.4375 -6.234375 C 6.15625 -6.234375 6.734375 -6.289062 7.171875 -6.40625 C 7.617188 -6.53125 7.96875 -6.742188 8.21875 -7.046875 C 8.476562 -7.347656 8.679688 -7.765625 8.828125 -8.296875 L 8.828125 -3.90625 C 8.679688 -4.4375 8.476562 -4.847656 8.21875 -5.140625 C 7.96875 -5.441406 7.617188 -5.648438 7.171875 -5.765625 C 6.734375 -5.890625 6.15625 -5.953125 5.4375 -5.953125 L 3.96875 -5.953125 L 3.96875 -0.28125 L 6.265625 -0.28125 C 7.015625 -0.28125 7.65625 -0.40625 8.1875 -0.65625 C 8.726562 -0.90625 9.21875 -1.28125 9.65625 -1.78125 C 10.101562 -2.289062 10.5625 -2.929688 11.03125 -3.703125 Z M 11.03125 -3.703125 "/></g></g></g><g fill="#000000" fill-opacity="1"><g transform="translate(138.054766, 49.622964)"><g><path d="M 15.46875 -12.09375 C 15.113281 -12.050781 14.804688 -11.96875 14.546875 -11.84375 C 14.285156 -11.71875 14.15625 -11.5 14.15625 -11.1875 L 14.15625 -0.984375 C 14.15625 -0.671875 14.285156 -0.453125 14.546875 -0.328125 C 14.804688 -0.210938 15.113281 -0.132812 15.46875 -0.09375 L 15.46875 0 L 10.4375 0 L 10.4375 -0.09375 C 10.800781 -0.132812 11.113281 -0.210938 11.375 -0.328125 C 11.632812 -0.453125 11.765625 -0.671875 11.765625 -0.984375 L 11.765625 -11.28125 L 6.90625 0.1875 L 1.9375 -9.75 L 1.9375 -3.078125 C 1.9375 -2.285156 1.992188 -1.675781 2.109375 -1.25 C 2.234375 -0.832031 2.394531 -0.539062 2.59375 -0.375 C 2.800781 -0.21875 3.019531 -0.125 3.25 -0.09375 L 3.25 0 L 0.265625 0 L 0.265625 -0.09375 C 0.503906 -0.125 0.722656 -0.191406 0.921875 -0.296875 C 1.117188 -0.398438 1.273438 -0.632812 1.390625 -1 C 1.515625 -1.363281 1.578125 -1.941406 1.578125 -2.734375 L 1.578125 -10.4375 C 1.421875 -10.78125 1.238281 -11.085938 1.03125 -11.359375 C 0.832031 -11.628906 0.546875 -11.90625 0.171875 -12.1875 L 3.234375 -12.1875 L 7.875 -2.9375 L 11.765625 -12.1875 L 15.46875 -12.1875 Z M 15.46875 -12.09375 "/></g></g></g><g fill="#000000" fill-opacity="1"><g transform="translate(155.81696, 49.622964)"><g><path d="M 12.375 -2.1875 C 12.582031 -1.65625 12.765625 -1.238281 12.921875 -0.9375 C 13.085938 -0.644531 13.257812 -0.4375 13.4375 -0.3125 C 13.625 -0.1875 13.84375 -0.101562 14.09375 -0.0625 L 14.09375 0 L 8.59375 0 L 8.59375 -0.0625 C 9 -0.101562 9.335938 -0.179688 9.609375 -0.296875 C 9.878906 -0.421875 10.046875 -0.625 10.109375 -0.90625 C 10.179688 -1.1875 10.113281 -1.582031 9.90625 -2.09375 L 9.5625 -2.953125 L 2.90625 -2.953125 L 2.53125 -2.09375 C 2.300781 -1.59375 2.21875 -1.207031 2.28125 -0.9375 C 2.34375 -0.675781 2.488281 -0.484375 2.71875 -0.359375 C 2.945312 -0.234375 3.222656 -0.132812 3.546875 -0.0625 L 3.546875 0 L 0.34375 0 L 0.34375 -0.0625 C 0.59375 -0.132812 0.8125 -0.234375 1 -0.359375 C 1.1875 -0.492188 1.367188 -0.691406 1.546875 -0.953125 C 1.734375 -1.222656 1.929688 -1.609375 2.140625 -2.109375 L 5.953125 -10.890625 L 5.921875 -11.40625 L 6.25 -11.59375 L 8.296875 -12.6875 C 8.296875 -12.644531 8.316406 -12.546875 8.359375 -12.390625 C 8.398438 -12.234375 8.515625 -11.925781 8.703125 -11.46875 Z M 3.03125 -3.265625 L 9.4375 -3.265625 L 6.359375 -10.953125 Z M 3.03125 -3.265625 "/></g></g></g><g fill="#000000" fill-opacity="1"><g transform="translate(172.291847, 49.622964)"><g><path d="M 10.4375 -2.296875 C 10.789062 -1.828125 11.101562 -1.457031 11.375 -1.1875 C 11.644531 -0.914062 11.910156 -0.695312 12.171875 -0.53125 C 12.441406 -0.363281 12.726562 -0.203125 13.03125 -0.046875 L 13.03125 0 L 9.28125 0 L 9.28125 -0.296875 L 6 -4.90625 L 3.96875 -4.90625 L 3.96875 -0.984375 C 3.96875 -0.671875 4.097656 -0.453125 4.359375 -0.328125 C 4.617188 -0.210938 4.929688 -0.132812 5.296875 -0.09375 L 5.296875 0 L 0.265625 0 L 0.265625 -0.09375 C 0.617188 -0.132812 0.925781 -0.210938 1.1875 -0.328125 C 1.445312 -0.453125 1.578125 -0.671875 1.578125 -0.984375 L 1.578125 -11.1875 C 1.578125 -11.5 1.445312 -11.71875 1.1875 -11.84375 C 0.925781 -11.96875 0.617188 -12.050781 0.265625 -12.09375 L 0.265625 -12.1875 L 6.828125 -12.1875 C 8.378906 -12.1875 9.582031 -11.921875 10.4375 -11.390625 C 11.300781 -10.859375 11.734375 -10.023438 11.734375 -8.890625 C 11.734375 -8.023438 11.429688 -7.265625 10.828125 -6.609375 C 10.222656 -5.953125 9.394531 -5.476562 8.34375 -5.1875 Z M 3.96875 -11.875 L 3.96875 -5.59375 C 4.894531 -5.320312 5.816406 -5.1875 6.734375 -5.1875 C 7.328125 -5.1875 7.816406 -5.265625 8.203125 -5.421875 C 8.597656 -5.585938 8.890625 -5.890625 9.078125 -6.328125 C 9.273438 -6.765625 9.375 -7.382812 9.375 -8.1875 C 9.375 -8.644531 9.332031 -9.09375 9.25 -9.53125 C 9.164062 -9.96875 9 -10.363281 8.75 -10.71875 C 8.507812 -11.070312 8.15625 -11.351562 7.6875 -11.5625 C 7.226562 -11.769531 6.628906 -11.875 5.890625 -11.875 Z M 3.96875 -11.875 "/></g></g></g><g fill="#000000" fill-opacity="1"><g transform="translate(186.57474, 49.622964)"><g><path d="M 9.90625 -12.1875 L 13.75 -12.1875 L 13.75 -12.109375 C 13.269531 -12.003906 12.835938 -11.847656 12.453125 -11.640625 C 12.078125 -11.429688 11.703125 -11.019531 11.328125 -10.40625 L 8.1875 -5.203125 L 8.1875 -0.984375 C 8.1875 -0.671875 8.320312 -0.453125 8.59375 -0.328125 C 8.875 -0.210938 9.234375 -0.132812 9.671875 -0.09375 L 9.671875 0 L 4.296875 0 L 4.296875 -0.09375 C 4.734375 -0.132812 5.09375 -0.210938 5.375 -0.328125 C 5.65625 -0.453125 5.796875 -0.671875 5.796875 -0.984375 L 5.796875 -4.859375 L 2.109375 -10.59375 C 1.785156 -11.101562 1.46875 -11.472656 1.15625 -11.703125 C 0.851562 -11.929688 0.554688 -12.066406 0.265625 -12.109375 L 0.265625 -12.1875 L 3.8125 -12.1875 L 4.75 -10.59375 L 7.96875 -5.53125 L 10.890625 -10.421875 C 11.148438 -10.835938 11.265625 -11.15625 11.234375 -11.375 C 11.203125 -11.601562 11.066406 -11.769531 10.828125 -11.875 C 10.597656 -11.976562 10.289062 -12.054688 9.90625 -12.109375 Z M 9.90625 -12.1875 "/></g></g></g><g fill="#000000" fill-opacity="1"><g transform="translate(202.614724, 49.622964)"><g/></g></g><g fill="#000000" fill-opacity="1"><g transform="translate(208.130124, 49.622964)"><g><path d="M 0.65625 -12.1875 L 5.75 -12.1875 L 5.75 -12.09375 C 5.382812 -12.050781 5.070312 -11.96875 4.8125 -11.84375 C 4.550781 -11.71875 4.421875 -11.5 4.421875 -11.1875 L 4.421875 -1.71875 C 4.421875 -1.1875 4.425781 -0.726562 4.4375 -0.34375 C 4.445312 0.03125 4.476562 0.351562 4.53125 0.625 C 4.0625 1.257812 3.425781 1.863281 2.625 2.4375 C 1.820312 3.019531 0.929688 3.445312 -0.046875 3.71875 L -0.09375 3.6875 C 0.46875 3.425781 0.898438 3.117188 1.203125 2.765625 C 1.515625 2.421875 1.726562 2 1.84375 1.5 C 1.96875 1 2.03125 0.382812 2.03125 -0.34375 L 2.03125 -11.1875 C 2.03125 -11.5 1.894531 -11.71875 1.625 -11.84375 C 1.363281 -11.96875 1.039062 -12.050781 0.65625 -12.09375 Z M 0.65625 -12.1875 "/></g></g></g><g fill="#000000" fill-opacity="1"><g transform="translate(216.341929, 49.622964)"><g><path d="M 11.03125 -3.703125 L 11.109375 -3.671875 L 10.1875 0 L 10.078125 0.390625 L 9.484375 0 L 0.265625 0 L 0.265625 -0.09375 C 0.617188 -0.21875 0.925781 -0.378906 1.1875 -0.578125 C 1.445312 -0.773438 1.578125 -1.03125 1.578125 -1.34375 L 1.578125 -11.1875 C 1.578125 -11.5 1.445312 -11.71875 1.1875 -11.84375 C 0.925781 -11.96875 0.617188 -12.050781 0.265625 -12.09375 L 0.265625 -12.1875 L 9.828125 -12.1875 L 10.484375 -9.125 L 10.40625 -9.09375 C 9.96875 -9.738281 9.566406 -10.269531 9.203125 -10.6875 C 8.847656 -11.101562 8.441406 -11.410156 7.984375 -11.609375 C 7.523438 -11.804688 6.914062 -11.90625 6.15625 -11.90625 L 3.96875 -11.90625 L 3.96875 -6.234375 L 5.4375 -6.234375 C 6.15625 -6.234375 6.734375 -6.289062 7.171875 -6.40625 C 7.617188 -6.53125 7.96875 -6.742188 8.21875 -7.046875 C 8.476562 -7.347656 8.679688 -7.765625 8.828125 -8.296875 L 8.828125 -3.90625 C 8.679688 -4.4375 8.476562 -4.847656 8.21875 -5.140625 C 7.96875 -5.441406 7.617188 -5.648438 7.171875 -5.765625 C 6.734375 -5.890625 6.15625 -5.953125 5.4375 -5.953125 L 3.96875 -5.953125 L 3.96875 -0.28125 L 6.265625 -0.28125 C 7.015625 -0.28125 7.65625 -0.40625 8.1875 -0.65625 C 8.726562 -0.90625 9.21875 -1.28125 9.65625 -1.78125 C 10.101562 -2.289062 10.5625 -2.929688 11.03125 -3.703125 Z M 11.03125 -3.703125 "/></g></g></g><g fill="#000000" fill-opacity="1"><g transform="translate(229.737712, 49.622964)"><g><path d="M 9.5625 -12.1875 L 12.53125 -12.1875 L 12.53125 -12.09375 C 12.300781 -12.070312 12.082031 -12.003906 11.875 -11.890625 C 11.675781 -11.785156 11.515625 -11.550781 11.390625 -11.1875 C 11.265625 -10.820312 11.203125 -10.242188 11.203125 -9.453125 L 11.203125 -2.890625 C 11.203125 -1.984375 11.210938 -1.273438 11.234375 -0.765625 C 11.265625 -0.265625 11.285156 0.140625 11.296875 0.453125 L 11.265625 0.484375 L 2.109375 -10.390625 L 2.109375 -3.078125 C 2.109375 -2.285156 2.164062 -1.675781 2.28125 -1.25 C 2.40625 -0.832031 2.566406 -0.539062 2.765625 -0.375 C 2.972656 -0.21875 3.191406 -0.125 3.421875 -0.09375 L 3.421875 0 L 0.4375 0 L 0.4375 -0.09375 C 0.675781 -0.125 0.894531 -0.191406 1.09375 -0.296875 C 1.289062 -0.398438 1.453125 -0.632812 1.578125 -1 C 1.703125 -1.363281 1.765625 -1.941406 1.765625 -2.734375 L 1.765625 -10.8125 C 1.472656 -11.15625 1.203125 -11.429688 0.953125 -11.640625 C 0.710938 -11.859375 0.453125 -12.039062 0.171875 -12.1875 L 3.671875 -12.1875 C 3.734375 -12.101562 3.804688 -12.003906 3.890625 -11.890625 C 3.972656 -11.785156 4.070312 -11.640625 4.1875 -11.453125 L 10.875 -3.5625 L 10.875 -9.109375 C 10.875 -9.890625 10.8125 -10.492188 10.6875 -10.921875 C 10.570312 -11.347656 10.414062 -11.644531 10.21875 -11.8125 C 10.019531 -11.976562 9.800781 -12.070312 9.5625 -12.09375 Z M 9.5625 -12.1875 "/></g></g></g><g fill="#000000" fill-opacity="1"><g transform="translate(244.559976, 49.622964)"><g><path d="M 3.96875 -0.984375 C 3.96875 -0.671875 4.097656 -0.453125 4.359375 -0.328125 C 4.617188 -0.210938 4.929688 -0.132812 5.296875 -0.09375 L 5.296875 0 L 0.265625 0 L 0.265625 -0.09375 C 0.617188 -0.132812 0.925781 -0.210938 1.1875 -0.328125 C 1.445312 -0.453125 1.578125 -0.671875 1.578125 -0.984375 L 1.578125 -11.1875 C 1.578125 -11.5 1.445312 -11.71875 1.1875 -11.84375 C 0.925781 -11.96875 0.617188 -12.050781 0.265625 -12.09375 L 0.265625 -12.1875 L 5.296875 -12.1875 L 5.296875 -12.09375 C 4.929688 -12.050781 4.617188 -11.96875 4.359375 -11.84375 C 4.097656 -11.71875 3.96875 -11.5 3.96875 -11.1875 Z M 13.015625 0 L 9.28125 0 L 9.28125 -0.296875 L 4.953125 -5.65625 L 4.03125 -5.65625 L 9.828125 -11.25 C 9.953125 -11.351562 10.023438 -11.457031 10.046875 -11.5625 C 10.078125 -11.675781 10.015625 -11.78125 9.859375 -11.875 C 9.703125 -11.96875 9.378906 -12.035156 8.890625 -12.078125 L 8.921875 -12.1875 L 12.5 -12.1875 L 12.46875 -12.078125 C 12.007812 -12.035156 11.519531 -11.875 11 -11.59375 C 10.488281 -11.3125 9.851562 -10.804688 9.09375 -10.078125 L 6.28125 -7.375 L 10.421875 -2.296875 C 10.828125 -1.816406 11.164062 -1.4375 11.4375 -1.15625 C 11.71875 -0.875 11.972656 -0.644531 12.203125 -0.46875 C 12.441406 -0.300781 12.710938 -0.144531 13.015625 0 Z M 13.015625 0 "/></g></g></g><g fill="#000000" fill-opacity="1"><g transform="translate(259.695364, 49.622964)"><g><path d="M 0.265625 0 L 0.265625 -0.09375 C 0.617188 -0.132812 0.925781 -0.210938 1.1875 -0.328125 C 1.445312 -0.453125 1.578125 -0.671875 1.578125 -0.984375 L 1.578125 -11.1875 C 1.578125 -11.5 1.445312 -11.71875 1.1875 -11.84375 C 0.925781 -11.96875 0.617188 -12.050781 0.265625 -12.09375 L 0.265625 -12.1875 L 5.296875 -12.1875 L 5.296875 -12.09375 C 4.929688 -12.050781 4.617188 -11.96875 4.359375 -11.84375 C 4.097656 -11.71875 3.96875 -11.5 3.96875 -11.1875 L 3.96875 -0.984375 C 3.96875 -0.671875 4.097656 -0.453125 4.359375 -0.328125 C 4.617188 -0.210938 4.929688 -0.132812 5.296875 -0.09375 L 5.296875 0 Z M 0.265625 0 "/></g></g></g><g fill="#000000" fill-opacity="1"><g transform="translate(267.280886, 49.622964)"><g><path d="M 9.5625 -12.1875 L 12.53125 -12.1875 L 12.53125 -12.09375 C 12.300781 -12.070312 12.082031 -12.003906 11.875 -11.890625 C 11.675781 -11.785156 11.515625 -11.550781 11.390625 -11.1875 C 11.265625 -10.820312 11.203125 -10.242188 11.203125 -9.453125 L 11.203125 -2.890625 C 11.203125 -1.984375 11.210938 -1.273438 11.234375 -0.765625 C 11.265625 -0.265625 11.285156 0.140625 11.296875 0.453125 L 11.265625 0.484375 L 2.109375 -10.390625 L 2.109375 -3.078125 C 2.109375 -2.285156 2.164062 -1.675781 2.28125 -1.25 C 2.40625 -0.832031 2.566406 -0.539062 2.765625 -0.375 C 2.972656 -0.21875 3.191406 -0.125 3.421875 -0.09375 L 3.421875 0 L 0.4375 0 L 0.4375 -0.09375 C 0.675781 -0.125 0.894531 -0.191406 1.09375 -0.296875 C 1.289062 -0.398438 1.453125 -0.632812 1.578125 -1 C 1.703125 -1.363281 1.765625 -1.941406 1.765625 -2.734375 L 1.765625 -10.8125 C 1.472656 -11.15625 1.203125 -11.429688 0.953125 -11.640625 C 0.710938 -11.859375 0.453125 -12.039062 0.171875 -12.1875 L 3.671875 -12.1875 C 3.734375 -12.101562 3.804688 -12.003906 3.890625 -11.890625 C 3.972656 -11.785156 4.070312 -11.640625 4.1875 -11.453125 L 10.875 -3.5625 L 10.875 -9.109375 C 10.875 -9.890625 10.8125 -10.492188 10.6875 -10.921875 C 10.570312 -11.347656 10.414062 -11.644531 10.21875 -11.8125 C 10.019531 -11.976562 9.800781 -12.070312 9.5625 -12.09375 Z M 9.5625 -12.1875 "/></g></g></g><g fill="#000000" fill-opacity="1"><g transform="translate(282.103162, 49.622964)"><g><path d="M 6.125 -7.28125 C 6.988281 -7.082031 7.6875 -6.835938 8.21875 -6.546875 C 8.757812 -6.253906 9.175781 -5.929688 9.46875 -5.578125 C 9.757812 -5.234375 9.957031 -4.882812 10.0625 -4.53125 C 10.175781 -4.175781 10.234375 -3.835938 10.234375 -3.515625 C 10.234375 -2.804688 10.039062 -2.164062 9.65625 -1.59375 C 9.28125 -1.03125 8.726562 -0.582031 8 -0.25 C 7.28125 0.0820312 6.410156 0.25 5.390625 0.25 C 4.335938 0.25 3.410156 0.0859375 2.609375 -0.234375 C 1.804688 -0.554688 1.171875 -0.941406 0.703125 -1.390625 L 2.296875 -3.9375 C 2.234375 -3.332031 2.300781 -2.785156 2.5 -2.296875 C 2.707031 -1.816406 3 -1.410156 3.375 -1.078125 C 3.75 -0.742188 4.171875 -0.484375 4.640625 -0.296875 C 5.117188 -0.117188 5.601562 -0.03125 6.09375 -0.03125 C 6.601562 -0.03125 7.015625 -0.109375 7.328125 -0.265625 C 7.648438 -0.429688 7.898438 -0.640625 8.078125 -0.890625 C 8.253906 -1.140625 8.375 -1.40625 8.4375 -1.6875 C 8.507812 -1.96875 8.546875 -2.222656 8.546875 -2.453125 C 8.546875 -2.972656 8.421875 -3.378906 8.171875 -3.671875 C 7.921875 -3.972656 7.554688 -4.21875 7.078125 -4.40625 C 6.597656 -4.59375 6.007812 -4.765625 5.3125 -4.921875 C 4.1875 -5.191406 3.3125 -5.546875 2.6875 -5.984375 C 2.070312 -6.429688 1.640625 -6.914062 1.390625 -7.4375 C 1.140625 -7.957031 1.015625 -8.46875 1.015625 -8.96875 C 1.015625 -9.6875 1.203125 -10.300781 1.578125 -10.8125 C 1.960938 -11.332031 2.5 -11.726562 3.1875 -12 C 3.882812 -12.28125 4.703125 -12.421875 5.640625 -12.421875 C 6.648438 -12.421875 7.515625 -12.265625 8.234375 -11.953125 C 8.960938 -11.648438 9.5625 -11.28125 10.03125 -10.84375 L 8.375 -8.296875 C 8.457031 -8.890625 8.40625 -9.425781 8.21875 -9.90625 C 8.039062 -10.382812 7.773438 -10.789062 7.421875 -11.125 C 7.078125 -11.457031 6.675781 -11.710938 6.21875 -11.890625 C 5.757812 -12.078125 5.296875 -12.171875 4.828125 -12.171875 C 4.273438 -12.171875 3.84375 -12.0625 3.53125 -11.84375 C 3.226562 -11.625 3.019531 -11.351562 2.90625 -11.03125 C 2.789062 -10.707031 2.734375 -10.382812 2.734375 -10.0625 C 2.734375 -9.457031 2.890625 -8.972656 3.203125 -8.609375 C 3.515625 -8.253906 3.925781 -7.976562 4.4375 -7.78125 C 4.957031 -7.582031 5.519531 -7.414062 6.125 -7.28125 Z M 6.125 -7.28125 "/></g></g></g><g fill="#000000" fill-opacity="1"><g transform="translate(124.646763, 75.333799)"><g><path d="M 15.296875 -11.953125 C 14.941406 -11.910156 14.632812 -11.828125 14.375 -11.703125 C 14.113281 -11.585938 13.984375 -11.375 13.984375 -11.0625 L 13.984375 -0.984375 C 13.984375 -0.671875 14.113281 -0.453125 14.375 -0.328125 C 14.632812 -0.210938 14.941406 -0.132812 15.296875 -0.09375 L 15.296875 0 L 10.328125 0 L 10.328125 -0.09375 C 10.679688 -0.132812 10.984375 -0.210938 11.234375 -0.328125 C 11.492188 -0.453125 11.625 -0.671875 11.625 -0.984375 L 11.625 -11.140625 L 6.828125 0.1875 L 1.90625 -9.640625 L 1.90625 -3.046875 C 1.90625 -2.265625 1.960938 -1.664062 2.078125 -1.25 C 2.203125 -0.832031 2.363281 -0.539062 2.5625 -0.375 C 2.769531 -0.21875 2.988281 -0.125 3.21875 -0.09375 L 3.21875 0 L 0.265625 0 L 0.265625 -0.09375 C 0.503906 -0.125 0.71875 -0.191406 0.90625 -0.296875 C 1.101562 -0.398438 1.257812 -0.628906 1.375 -0.984375 C 1.5 -1.347656 1.5625 -1.921875 1.5625 -2.703125 L 1.5625 -10.328125 C 1.40625 -10.660156 1.222656 -10.957031 1.015625 -11.21875 C 0.816406 -11.488281 0.535156 -11.765625 0.171875 -12.046875 L 3.203125 -12.046875 L 7.78125 -2.90625 L 11.625 -12.046875 L 15.296875 -12.046875 Z M 15.296875 -11.953125 "/></g></g></g><g fill="#000000" fill-opacity="1"><g transform="translate(141.540882, 75.333799)"><g><path d="M 10.90625 -3.671875 L 10.96875 -3.625 L 10.0625 0 L 9.953125 0.375 L 9.375 0 L 0.265625 0 L 0.265625 -0.09375 C 0.617188 -0.21875 0.921875 -0.375 1.171875 -0.5625 C 1.429688 -0.757812 1.5625 -1.015625 1.5625 -1.328125 L 1.5625 -11.0625 C 1.5625 -11.375 1.429688 -11.585938 1.171875 -11.703125 C 0.921875 -11.828125 0.617188 -11.910156 0.265625 -11.953125 L 0.265625 -12.046875 L 9.71875 -12.046875 L 10.359375 -9.015625 L 10.28125 -8.984375 C 9.851562 -9.617188 9.457031 -10.144531 9.09375 -10.5625 C 8.738281 -10.976562 8.332031 -11.28125 7.875 -11.46875 C 7.425781 -11.664062 6.832031 -11.765625 6.09375 -11.765625 L 3.921875 -11.765625 L 3.921875 -6.15625 L 5.375 -6.15625 C 6.082031 -6.15625 6.65625 -6.210938 7.09375 -6.328125 C 7.539062 -6.453125 7.890625 -6.664062 8.140625 -6.96875 C 8.390625 -7.269531 8.582031 -7.679688 8.71875 -8.203125 L 8.71875 -3.859375 C 8.582031 -4.378906 8.390625 -4.785156 8.140625 -5.078125 C 7.890625 -5.367188 7.539062 -5.578125 7.09375 -5.703125 C 6.65625 -5.828125 6.082031 -5.890625 5.375 -5.890625 L 3.921875 -5.890625 L 3.921875 -0.28125 L 6.1875 -0.28125 C 6.9375 -0.28125 7.570312 -0.398438 8.09375 -0.640625 C 8.625 -0.890625 9.109375 -1.265625 9.546875 -1.765625 C 9.984375 -2.265625 10.4375 -2.898438 10.90625 -3.671875 Z M 10.90625 -3.671875 "/></g></g></g><g fill="#000000" fill-opacity="1"><g transform="translate(153.949501, 75.333799)"><g><path d="M 15.296875 -11.953125 C 14.941406 -11.910156 14.632812 -11.828125 14.375 -11.703125 C 14.113281 -11.585938 13.984375 -11.375 13.984375 -11.0625 L 13.984375 -0.984375 C 13.984375 -0.671875 14.113281 -0.453125 14.375 -0.328125 C 14.632812 -0.210938 14.941406 -0.132812 15.296875 -0.09375 L 15.296875 0 L 10.328125 0 L 10.328125 -0.09375 C 10.679688 -0.132812 10.984375 -0.210938 11.234375 -0.328125 C 11.492188 -0.453125 11.625 -0.671875 11.625 -0.984375 L 11.625 -11.140625 L 6.828125 0.1875 L 1.90625 -9.640625 L 1.90625 -3.046875 C 1.90625 -2.265625 1.960938 -1.664062 2.078125 -1.25 C 2.203125 -0.832031 2.363281 -0.539062 2.5625 -0.375 C 2.769531 -0.21875 2.988281 -0.125 3.21875 -0.09375 L 3.21875 0 L 0.265625 0 L 0.265625 -0.09375 C 0.503906 -0.125 0.71875 -0.191406 0.90625 -0.296875 C 1.101562 -0.398438 1.257812 -0.628906 1.375 -0.984375 C 1.5 -1.347656 1.5625 -1.921875 1.5625 -2.703125 L 1.5625 -10.328125 C 1.40625 -10.660156 1.222656 -10.957031 1.015625 -11.21875 C 0.816406 -11.488281 0.535156 -11.765625 0.171875 -12.046875 L 3.203125 -12.046875 L 7.78125 -2.90625 L 11.625 -12.046875 L 15.296875 -12.046875 Z M 15.296875 -11.953125 "/></g></g></g><g fill="#000000" fill-opacity="1"><g transform="translate(170.327735, 75.333799)"><g><path d="M 7.421875 -12.28125 C 8.347656 -12.28125 9.210938 -12.132812 10.015625 -11.84375 C 10.816406 -11.5625 11.515625 -11.144531 12.109375 -10.59375 C 12.710938 -10.050781 13.179688 -9.394531 13.515625 -8.625 C 13.859375 -7.851562 14.03125 -6.984375 14.03125 -6.015625 C 14.03125 -5.054688 13.859375 -4.1875 13.515625 -3.40625 C 13.179688 -2.632812 12.710938 -1.976562 12.109375 -1.4375 C 11.515625 -0.894531 10.816406 -0.476562 10.015625 -0.1875 C 9.210938 0.09375 8.347656 0.234375 7.421875 0.234375 C 6.472656 0.234375 5.597656 0.09375 4.796875 -0.1875 C 3.992188 -0.476562 3.289062 -0.894531 2.6875 -1.4375 C 2.09375 -1.976562 1.625 -2.632812 1.28125 -3.40625 C 0.945312 -4.1875 0.78125 -5.054688 0.78125 -6.015625 C 0.78125 -6.984375 0.945312 -7.851562 1.28125 -8.625 C 1.625 -9.394531 2.09375 -10.050781 2.6875 -10.59375 C 3.289062 -11.144531 3.992188 -11.5625 4.796875 -11.84375 C 5.597656 -12.132812 6.472656 -12.28125 7.421875 -12.28125 Z M 8.140625 -0.0625 C 8.828125 -0.0625 9.425781 -0.265625 9.9375 -0.671875 C 10.445312 -1.085938 10.84375 -1.65625 11.125 -2.375 C 11.40625 -3.09375 11.546875 -3.929688 11.546875 -4.890625 C 11.546875 -5.742188 11.425781 -6.585938 11.1875 -7.421875 C 10.957031 -8.265625 10.625 -9.023438 10.1875 -9.703125 C 9.75 -10.390625 9.226562 -10.9375 8.625 -11.34375 C 8.03125 -11.757812 7.378906 -11.96875 6.671875 -11.96875 C 5.984375 -11.96875 5.382812 -11.765625 4.875 -11.359375 C 4.363281 -10.960938 3.96875 -10.398438 3.6875 -9.671875 C 3.40625 -8.953125 3.265625 -8.117188 3.265625 -7.171875 C 3.265625 -6.316406 3.378906 -5.46875 3.609375 -4.625 C 3.847656 -3.78125 4.1875 -3.015625 4.625 -2.328125 C 5.0625 -1.648438 5.578125 -1.101562 6.171875 -0.6875 C 6.773438 -0.269531 7.429688 -0.0625 8.140625 -0.0625 Z M 8.140625 -0.0625 "/></g></g></g><g fill="#000000" fill-opacity="1"><g transform="translate(185.966991, 75.333799)"><g><path d="M 10.328125 -2.265625 C 10.671875 -1.804688 10.972656 -1.441406 11.234375 -1.171875 C 11.503906 -0.910156 11.769531 -0.695312 12.03125 -0.53125 C 12.300781 -0.363281 12.585938 -0.203125 12.890625 -0.046875 L 12.890625 0 L 9.171875 0 L 9.171875 -0.296875 L 5.9375 -4.84375 L 3.921875 -4.84375 L 3.921875 -0.984375 C 3.921875 -0.671875 4.050781 -0.453125 4.3125 -0.328125 C 4.570312 -0.210938 4.878906 -0.132812 5.234375 -0.09375 L 5.234375 0 L 0.265625 0 L 0.265625 -0.09375 C 0.617188 -0.132812 0.921875 -0.210938 1.171875 -0.328125 C 1.429688 -0.453125 1.5625 -0.671875 1.5625 -0.984375 L 1.5625 -11.0625 C 1.5625 -11.375 1.429688 -11.585938 1.171875 -11.703125 C 0.921875 -11.828125 0.617188 -11.910156 0.265625 -11.953125 L 0.265625 -12.046875 L 6.75 -12.046875 C 8.28125 -12.046875 9.46875 -11.785156 10.3125 -11.265625 C 11.164062 -10.742188 11.59375 -9.921875 11.59375 -8.796875 C 11.59375 -7.929688 11.296875 -7.175781 10.703125 -6.53125 C 10.109375 -5.882812 9.285156 -5.414062 8.234375 -5.125 Z M 3.921875 -11.734375 L 3.921875 -5.515625 C 4.835938 -5.253906 5.75 -5.125 6.65625 -5.125 C 7.238281 -5.125 7.722656 -5.203125 8.109375 -5.359375 C 8.492188 -5.523438 8.78125 -5.820312 8.96875 -6.25 C 9.164062 -6.6875 9.265625 -7.296875 9.265625 -8.078125 C 9.265625 -8.546875 9.222656 -8.992188 9.140625 -9.421875 C 9.054688 -9.847656 8.894531 -10.234375 8.65625 -10.578125 C 8.414062 -10.929688 8.066406 -11.210938 7.609375 -11.421875 C 7.148438 -11.628906 6.550781 -11.734375 5.8125 -11.734375 Z M 3.921875 -11.734375 "/></g></g></g><g fill="#000000" fill-opacity="1"><g transform="translate(199.853559, 75.333799)"><g><path d="M 0.265625 0 L 0.265625 -0.09375 C 0.617188 -0.132812 0.921875 -0.210938 1.171875 -0.328125 C 1.429688 -0.453125 1.5625 -0.671875 1.5625 -0.984375 L 1.5625 -11.0625 C 1.5625 -11.375 1.429688 -11.585938 1.171875 -11.703125 C 0.921875 -11.828125 0.617188 -11.910156 0.265625 -11.953125 L 0.265625 -12.046875 L 5.234375 -12.046875 L 5.234375 -11.953125 C 4.878906 -11.910156 4.570312 -11.828125 4.3125 -11.703125 C 4.050781 -11.585938 3.921875 -11.375 3.921875 -11.0625 L 3.921875 -0.984375 C 3.921875 -0.671875 4.050781 -0.453125 4.3125 -0.328125 C 4.570312 -0.210938 4.878906 -0.132812 5.234375 -0.09375 L 5.234375 0 Z M 0.265625 0 "/></g></g></g><g fill="#000000" fill-opacity="1"><g transform="translate(206.52225, 75.333799)"><g><path d="M 12.234375 -2.171875 C 12.441406 -1.640625 12.625 -1.226562 12.78125 -0.9375 C 12.9375 -0.644531 13.101562 -0.4375 13.28125 -0.3125 C 13.46875 -0.1875 13.6875 -0.101562 13.9375 -0.0625 L 13.9375 0 L 8.5 0 L 8.5 -0.0625 C 8.894531 -0.101562 9.222656 -0.179688 9.484375 -0.296875 C 9.753906 -0.421875 9.921875 -0.617188 9.984375 -0.890625 C 10.054688 -1.171875 9.988281 -1.5625 9.78125 -2.0625 L 9.4375 -2.921875 L 2.875 -2.921875 L 2.5 -2.0625 C 2.28125 -1.570312 2.195312 -1.191406 2.25 -0.921875 C 2.3125 -0.660156 2.457031 -0.46875 2.6875 -0.34375 C 2.914062 -0.226562 3.191406 -0.132812 3.515625 -0.0625 L 3.515625 0 L 0.34375 0 L 0.34375 -0.0625 C 0.582031 -0.132812 0.796875 -0.234375 0.984375 -0.359375 C 1.171875 -0.484375 1.351562 -0.675781 1.53125 -0.9375 C 1.71875 -1.207031 1.910156 -1.585938 2.109375 -2.078125 L 5.890625 -10.765625 L 5.84375 -11.265625 L 6.171875 -11.453125 L 8.203125 -12.546875 C 8.203125 -12.492188 8.222656 -12.390625 8.265625 -12.234375 C 8.304688 -12.078125 8.414062 -11.78125 8.59375 -11.34375 Z M 3 -3.234375 L 9.328125 -3.234375 L 6.28125 -10.828125 Z M 3 -3.234375 "/></g></g></g><g fill="#000000" fill-opacity="1"><g transform="translate(221.972685, 75.333799)"><g><path d="M 10.53125 -3.546875 L 10.59375 -3.515625 L 9.703125 0 L 9.59375 0.375 L 9.015625 0 L 0.265625 0 L 0.265625 -0.09375 C 0.617188 -0.21875 0.921875 -0.4375 1.171875 -0.75 C 1.429688 -1.070312 1.5625 -1.460938 1.5625 -1.921875 L 1.5625 -11.0625 C 1.5625 -11.375 1.429688 -11.585938 1.171875 -11.703125 C 0.921875 -11.828125 0.617188 -11.910156 0.265625 -11.953125 L 0.265625 -12.046875 L 5.40625 -12.046875 L 5.40625 -11.953125 C 4.96875 -11.910156 4.609375 -11.828125 4.328125 -11.703125 C 4.054688 -11.585938 3.921875 -11.375 3.921875 -11.0625 L 3.921875 -0.28125 L 5.25 -0.28125 C 5.96875 -0.28125 6.578125 -0.351562 7.078125 -0.5 C 7.585938 -0.644531 8.03125 -0.851562 8.40625 -1.125 C 8.78125 -1.40625 9.128906 -1.75 9.453125 -2.15625 C 9.773438 -2.5625 10.132812 -3.023438 10.53125 -3.546875 Z M 10.53125 -3.546875 "/></g></g></g></svg>