<svg xmlns="http://www.w3.org/2000/svg" xmlns:xlink="http://www.w3.org/1999/xlink" width="500" zoomAndPan="magnify" viewBox="0 0 375 374.999991" height="500" preserveAspectRatio="xMidYMid meet" version="1.0"><defs><g/><clipPath id="7d788d1ded"><path d="M 72.351562 67.421875 L 294.351562 67.421875 L 294.351562 290.128906 L 72.351562 290.128906 Z M 72.351562 67.421875 " clip-rule="nonzero"/></clipPath></defs><g clip-path="url(#7d788d1ded)"><path fill="#e33145" d="M 227.097656 198.226562 C 223.761719 197.601562 220.207031 197.558594 216.558594 198.226562 C 211.753906 199.070312 206.816406 201.070312 202.28125 204.269531 C 197.742188 207.515625 194.273438 211.515625 191.871094 215.875 C 190.136719 219.074219 188.980469 222.453125 188.535156 225.742188 C 191.828125 226.410156 195.386719 226.410156 199.03125 225.785156 C 203.882812 224.941406 208.773438 222.941406 213.355469 219.695312 C 217.847656 216.449219 221.363281 212.449219 223.761719 208.136719 C 225.5 204.9375 226.609375 201.558594 227.097656 198.226562 Z M 223.230469 105.320312 C 224.03125 104.832031 224.921875 104.566406 225.941406 104.566406 C 228.699219 104.566406 230.96875 106.832031 230.96875 109.589844 L 230.96875 146.574219 C 230.96875 158.128906 226.253906 168.621094 218.605469 176.222656 C 210.953125 183.824219 200.457031 188.578125 188.9375 188.578125 L 188.359375 188.578125 L 188.359375 203.425781 C 190.671875 200.757812 193.382812 198.269531 196.410156 196.09375 C 202.144531 191.957031 208.550781 189.378906 214.867188 188.269531 C 221.496094 187.113281 228.167969 187.644531 234.039062 189.734375 L 237.285156 190.890625 L 237.328125 194.402344 C 237.464844 200.625 235.816406 207.070312 232.570312 212.984375 C 229.5 218.585938 225.007812 223.832031 219.226562 227.917969 C 213.445312 232.054688 207.039062 234.675781 200.722656 235.742188 C 196.542969 236.5 192.359375 236.542969 188.3125 235.964844 L 188.3125 279.839844 C 211.710938 278.726562 233.195312 269.660156 249.917969 255.125 C 267.886719 239.523438 280.34375 217.695312 283.902344 192.625 C 284.300781 189.867188 286.835938 187.957031 289.59375 188.355469 C 292.351562 188.714844 294.265625 191.246094 293.863281 194.003906 C 289.996094 221.5625 276.25 245.613281 256.5 262.679688 C 236.886719 279.839844 211.175781 290.0625 183.332031 290.0625 C 155.351562 290.0625 129.6875 279.707031 110.074219 262.726562 C 90.234375 245.476562 76.535156 221.296875 72.710938 193.957031 C 72.351562 191.203125 74.265625 188.667969 77.023438 188.269531 C 79.78125 187.914062 82.316406 189.824219 82.671875 192.582031 C 86.140625 217.429688 98.640625 239.386719 116.699219 255.078125 C 133.378906 269.570312 154.773438 278.683594 178.304688 279.796875 L 178.304688 235.921875 C 174.300781 236.5 170.121094 236.453125 165.894531 235.699219 C 159.578125 234.632812 153.171875 232.007812 147.390625 227.875 C 141.652344 223.785156 137.160156 218.585938 134.046875 212.9375 C 130.800781 207.027344 129.15625 200.582031 129.242188 194.359375 L 129.332031 190.847656 L 132.578125 189.691406 C 138.449219 187.601562 145.078125 187.066406 151.707031 188.222656 C 158.023438 189.335938 164.425781 191.914062 170.210938 196.046875 C 173.234375 198.226562 175.949219 200.714844 178.261719 203.382812 L 178.261719 188.535156 L 177.683594 188.535156 C 166.117188 188.535156 155.621094 183.824219 148.015625 176.175781 C 140.40625 168.53125 135.648438 158.042969 135.648438 146.527344 L 135.648438 109.589844 C 135.648438 106.832031 137.917969 104.566406 140.675781 104.566406 C 141.429688 104.566406 142.144531 104.699219 142.765625 105.007812 C 144.054688 105.453125 148.371094 107.054688 153.972656 109.5 C 156.820312 105.410156 160.46875 101.988281 164.695312 99.453125 C 170.210938 96.074219 176.660156 94.207031 183.332031 94.207031 C 190.582031 94.207031 197.566406 96.429688 203.304688 100.296875 C 207.4375 103.097656 210.996094 106.742188 213.710938 111.144531 C 218.648438 107.855469 222.25 105.855469 223.230469 105.320312 Z M 150.058594 198.226562 C 146.457031 197.558594 142.941406 197.601562 139.5625 198.226562 C 140.007812 201.558594 141.164062 204.9375 142.898438 208.136719 C 145.257812 212.40625 148.769531 216.40625 153.308594 219.695312 C 157.84375 222.984375 162.738281 224.941406 167.628906 225.785156 C 171.234375 226.410156 174.746094 226.410156 178.128906 225.742188 C 177.683594 222.453125 176.527344 219.074219 174.792969 215.875 C 172.433594 211.5625 168.917969 207.5625 164.382812 204.269531 C 159.847656 201.070312 154.910156 199.070312 150.058594 198.226562 Z M 82.671875 164.21875 C 82.316406 166.976562 79.78125 168.886719 77.023438 168.53125 C 74.265625 168.132812 72.351562 165.597656 72.710938 162.84375 C 76.132812 138.261719 87.609375 116.210938 104.378906 99.453125 C 121.105469 82.738281 143.164062 71.316406 167.808594 67.847656 C 170.566406 67.449219 173.101562 69.359375 173.457031 72.113281 C 173.855469 74.871094 171.898438 77.40625 169.1875 77.804688 C 146.8125 80.917969 126.753906 91.363281 111.496094 106.566406 C 96.238281 121.769531 85.832031 141.859375 82.671875 164.21875 Z M 197.519531 77.847656 C 194.761719 77.449219 192.851562 74.914062 193.25 72.160156 C 193.605469 69.402344 196.140625 67.492188 198.898438 67.890625 C 223.40625 71.316406 245.515625 82.695312 262.371094 99.542969 C 279.007812 116.167969 290.4375 138.082031 293.996094 162.886719 C 294.351562 165.640625 292.441406 168.175781 289.683594 168.578125 C 286.925781 168.933594 284.390625 167.019531 283.988281 164.265625 C 280.832031 141.773438 270.378906 121.8125 255.253906 106.65625 C 239.910156 91.320312 219.761719 80.960938 197.519531 77.847656 Z M 163.269531 113.898438 C 172.34375 118.566406 182.128906 124.746094 187.691406 131.726562 C 193.605469 125.902344 199.832031 120.835938 205.394531 116.789062 C 203.4375 113.5 200.765625 110.742188 197.699219 108.65625 C 193.5625 105.855469 188.578125 104.296875 183.332031 104.296875 C 178.527344 104.296875 173.902344 105.632812 169.898438 108.03125 C 167.453125 109.589844 165.140625 111.542969 163.269531 113.898438 Z M 154.863281 120.878906 C 154.464844 120.789062 154.109375 120.65625 153.753906 120.433594 C 153.484375 120.347656 153.261719 120.210938 153.039062 120.035156 C 150.414062 118.835938 147.925781 117.8125 145.835938 116.921875 L 145.835938 146.574219 C 145.835938 155.328125 149.394531 163.332031 155.175781 169.109375 C 157.445312 171.375 160.023438 173.289062 162.914062 174.800781 C 164.695312 161.417969 171.898438 149.328125 180.75 139.058594 C 176.570312 132.125 164.78125 125.503906 154.863281 120.878906 Z M 215.089844 122.257812 C 214.824219 122.480469 214.511719 122.703125 214.199219 122.878906 C 207.171875 127.769531 198.542969 134.527344 190.980469 142.570312 C 190.671875 143.105469 190.226562 143.59375 189.691406 143.996094 C 180.886719 153.730469 173.722656 165.421875 172.65625 178.089844 C 174.300781 178.355469 175.992188 178.488281 177.726562 178.488281 L 188.9375 178.488281 C 197.699219 178.488281 205.703125 174.933594 211.488281 169.152344 C 217.269531 163.375 220.828125 155.375 220.828125 146.617188 L 220.828125 118.480469 C 219.136719 119.546875 217.179688 120.789062 215.089844 122.257812 Z M 215.089844 122.257812 " fill-opacity="1" fill-rule="nonzero"/></g><g fill="#000000" fill-opacity="1"><g transform="translate(32.146526, 200.630295)"><g><path d="M -3.640625 -17.296875 C -2.859375 -17.867188 -2.238281 -18.375 -1.78125 -18.8125 C -1.332031 -19.257812 -0.96875 -19.703125 -0.6875 -20.140625 C -0.40625 -20.578125 -0.140625 -21.046875 0.109375 -21.546875 L 0.203125 -21.546875 L 0.140625 -15.328125 L -0.34375 -15.328125 L -8.015625 -10 L -8.046875 -6.640625 L -1.578125 -6.578125 C -1.054688 -6.578125 -0.691406 -6.789062 -0.484375 -7.21875 C -0.285156 -7.644531 -0.144531 -8.15625 -0.0625 -8.75 L 0.078125 -8.75 L 0 -0.4375 L -0.140625 -0.4375 C -0.210938 -1.03125 -0.34375 -1.546875 -0.53125 -1.984375 C -0.726562 -2.421875 -1.085938 -2.640625 -1.609375 -2.640625 L -18.46875 -2.796875 C -18.976562 -2.804688 -19.335938 -2.59375 -19.546875 -2.15625 C -19.753906 -1.726562 -19.898438 -1.21875 -19.984375 -0.625 L -20.140625 -0.625 L -20.03125 -11.46875 C -20.007812 -14.03125 -19.550781 -16.015625 -18.65625 -17.421875 C -17.769531 -18.835938 -16.390625 -19.539062 -14.515625 -19.53125 C -13.078125 -19.507812 -11.820312 -18.992188 -10.75 -17.984375 C -9.675781 -16.984375 -8.910156 -15.609375 -8.453125 -13.859375 Z M -19.5625 -6.75 L -9.171875 -6.65625 C -8.722656 -8.175781 -8.488281 -9.691406 -8.46875 -11.203125 C -8.457031 -12.179688 -8.582031 -12.992188 -8.84375 -13.640625 C -9.101562 -14.296875 -9.59375 -14.785156 -10.3125 -15.109375 C -11.03125 -15.441406 -12.050781 -15.613281 -13.375 -15.625 C -14.144531 -15.632812 -14.890625 -15.570312 -15.609375 -15.4375 C -16.328125 -15.300781 -16.976562 -15.03125 -17.5625 -14.625 C -18.15625 -14.226562 -18.628906 -13.648438 -18.984375 -12.890625 C -19.335938 -12.128906 -19.519531 -11.132812 -19.53125 -9.90625 Z M -19.5625 -6.75 "/></g></g></g><g fill="#000000" fill-opacity="1"><g transform="translate(32.36, 177.646032)"><g><path d="M -18.109375 -15.71875 C -17.835938 -17.257812 -17.347656 -18.644531 -16.640625 -19.875 C -15.941406 -21.113281 -15.054688 -22.15625 -13.984375 -23 C -12.921875 -23.84375 -11.703125 -24.429688 -10.328125 -24.765625 C -8.960938 -25.097656 -7.484375 -25.125 -5.890625 -24.84375 C -4.316406 -24.570312 -2.9375 -24.046875 -1.75 -23.265625 C -0.5625 -22.484375 0.390625 -21.515625 1.109375 -20.359375 C 1.835938 -19.210938 2.320312 -17.941406 2.5625 -16.546875 C 2.8125 -15.148438 2.800781 -13.679688 2.53125 -12.140625 C 2.257812 -10.597656 1.769531 -9.203125 1.0625 -7.953125 C 0.363281 -6.710938 -0.515625 -5.671875 -1.578125 -4.828125 C -2.648438 -3.992188 -3.875 -3.410156 -5.25 -3.078125 C -6.632812 -2.753906 -8.113281 -2.726562 -9.6875 -3 C -11.28125 -3.28125 -12.664062 -3.804688 -13.84375 -4.578125 C -15.019531 -5.359375 -15.96875 -6.320312 -16.6875 -7.46875 C -17.414062 -8.613281 -17.898438 -9.890625 -18.140625 -11.296875 C -18.390625 -12.703125 -18.378906 -14.175781 -18.109375 -15.71875 Z M 2.21875 -13.421875 C 2.414062 -14.546875 2.25 -15.585938 1.71875 -16.546875 C 1.195312 -17.515625 0.382812 -18.332031 -0.71875 -19 C -1.832031 -19.664062 -3.171875 -20.140625 -4.734375 -20.421875 C -6.148438 -20.660156 -7.582031 -20.707031 -9.03125 -20.5625 C -10.476562 -20.414062 -11.828125 -20.082031 -13.078125 -19.5625 C -14.328125 -19.039062 -15.375 -18.347656 -16.21875 -17.484375 C -17.070312 -16.617188 -17.601562 -15.597656 -17.8125 -14.421875 C -18.007812 -13.296875 -17.847656 -12.25 -17.328125 -11.28125 C -16.816406 -10.320312 -16.003906 -9.507812 -14.890625 -8.84375 C -13.785156 -8.1875 -12.453125 -7.722656 -10.890625 -7.453125 C -9.472656 -7.203125 -8.035156 -7.148438 -6.578125 -7.296875 C -5.117188 -7.441406 -3.765625 -7.773438 -2.515625 -8.296875 C -1.265625 -8.816406 -0.210938 -9.507812 0.640625 -10.375 C 1.492188 -11.238281 2.019531 -12.253906 2.21875 -13.421875 Z M 2.21875 -13.421875 "/></g></g></g><g fill="#000000" fill-opacity="1"><g transform="translate(37.299242, 151.550954)"><g><path d="M -8.171875 -13.4375 C -7.398438 -14.675781 -6.644531 -15.640625 -5.90625 -16.328125 C -5.164062 -17.015625 -4.445312 -17.492188 -3.75 -17.765625 C -3.050781 -18.046875 -2.394531 -18.175781 -1.78125 -18.15625 C -1.164062 -18.144531 -0.601562 -18.054688 -0.09375 -17.890625 C 1.007812 -17.515625 1.90625 -16.875 2.59375 -15.96875 C 3.28125 -15.070312 3.691406 -13.972656 3.828125 -12.671875 C 3.972656 -11.378906 3.773438 -9.929688 3.234375 -8.328125 C 2.679688 -6.671875 1.941406 -5.296875 1.015625 -4.203125 C 0.0976562 -3.117188 -0.835938 -2.328125 -1.796875 -1.828125 L -4.9375 -5.671875 C -4.019531 -5.265625 -3.132812 -5.09375 -2.28125 -5.15625 C -1.425781 -5.21875 -0.640625 -5.445312 0.078125 -5.84375 C 0.804688 -6.25 1.4375 -6.773438 1.96875 -7.421875 C 2.5 -8.078125 2.894531 -8.785156 3.15625 -9.546875 C 3.425781 -10.347656 3.519531 -11.046875 3.4375 -11.640625 C 3.351562 -12.234375 3.160156 -12.726562 2.859375 -13.125 C 2.566406 -13.53125 2.21875 -13.859375 1.8125 -14.109375 C 1.414062 -14.367188 1.035156 -14.5625 0.671875 -14.6875 C -0.140625 -14.957031 -0.84375 -14.972656 -1.4375 -14.734375 C -2.03125 -14.503906 -2.597656 -14.0625 -3.140625 -13.40625 C -3.691406 -12.75 -4.28125 -11.921875 -4.90625 -10.921875 C -5.914062 -9.296875 -6.929688 -8.113281 -7.953125 -7.375 C -8.972656 -6.632812 -9.957031 -6.207031 -10.90625 -6.09375 C -11.851562 -5.976562 -12.71875 -6.050781 -13.5 -6.3125 C -14.625 -6.6875 -15.488281 -7.3125 -16.09375 -8.1875 C -16.707031 -9.0625 -17.046875 -10.113281 -17.109375 -11.34375 C -17.179688 -12.570312 -16.972656 -13.921875 -16.484375 -15.390625 C -15.941406 -16.972656 -15.238281 -18.25 -14.375 -19.21875 C -13.519531 -20.195312 -12.625 -20.925781 -11.6875 -21.40625 L -8.578125 -17.515625 C -9.460938 -17.941406 -10.320312 -18.140625 -11.15625 -18.109375 C -12 -18.078125 -12.773438 -17.878906 -13.484375 -17.515625 C -14.203125 -17.148438 -14.820312 -16.648438 -15.34375 -16.015625 C -15.875 -15.390625 -16.265625 -14.707031 -16.515625 -13.96875 C -16.804688 -13.113281 -16.863281 -12.390625 -16.6875 -11.796875 C -16.507812 -11.203125 -16.195312 -10.726562 -15.75 -10.375 C -15.300781 -10.03125 -14.820312 -9.769531 -14.3125 -9.59375 C -13.363281 -9.269531 -12.523438 -9.257812 -11.796875 -9.5625 C -11.066406 -9.863281 -10.410156 -10.363281 -9.828125 -11.0625 C -9.253906 -11.769531 -8.703125 -12.5625 -8.171875 -13.4375 Z M -8.171875 -13.4375 "/></g></g></g><g fill="#000000" fill-opacity="1"><g transform="translate(43.811526, 132.582288)"><g><path d="M 2.609375 -19.0625 L 2.703125 -19.140625 L 7.46875 -15.078125 L 7.96875 -14.640625 L 6.953125 -14.046875 L 0.1875 -0.390625 L 0.0625 -0.453125 C 0.144531 -1.078125 0.132812 -1.65625 0.03125 -2.1875 C -0.0625 -2.726562 -0.34375 -3.113281 -0.8125 -3.34375 L -15.40625 -10.5625 C -15.863281 -10.789062 -16.28125 -10.753906 -16.65625 -10.453125 C -17.03125 -10.148438 -17.382812 -9.753906 -17.71875 -9.265625 L -17.859375 -9.328125 L -10.84375 -23.5 L -5.828125 -22.203125 L -5.8125 -22.078125 C -7.113281 -21.898438 -8.203125 -21.695312 -9.078125 -21.46875 C -9.960938 -21.25 -10.71875 -20.867188 -11.34375 -20.328125 C -11.96875 -19.796875 -12.554688 -18.972656 -13.109375 -17.859375 L -14.71875 -14.609375 L -6.328125 -10.4375 L -5.25 -12.59375 C -4.71875 -13.664062 -4.378906 -14.578125 -4.234375 -15.328125 C -4.097656 -16.085938 -4.15625 -16.765625 -4.40625 -17.359375 C -4.664062 -17.953125 -5.140625 -18.550781 -5.828125 -19.15625 L 0.703125 -15.921875 C -0.191406 -16.109375 -0.953125 -16.117188 -1.578125 -15.953125 C -2.210938 -15.796875 -2.78125 -15.429688 -3.28125 -14.859375 C -3.789062 -14.296875 -4.3125 -13.476562 -4.84375 -12.40625 L -5.921875 -10.25 L 2.5 -6.078125 L 4.1875 -9.484375 C 4.738281 -10.597656 5.019531 -11.640625 5.03125 -12.609375 C 5.050781 -13.585938 4.851562 -14.585938 4.4375 -15.609375 C 4.019531 -16.640625 3.410156 -17.789062 2.609375 -19.0625 Z M 2.609375 -19.0625 "/></g></g></g><g fill="#000000" fill-opacity="1"><g transform="translate(52.803738, 114.092835)"><g><path d="M -1.4375 -32.421875 C -1.726562 -31.898438 -1.914062 -31.398438 -2 -30.921875 C -2.082031 -30.453125 -1.914062 -30.070312 -1.5 -29.78125 L 12.21875 -20 C 12.644531 -19.695312 13.0625 -19.664062 13.46875 -19.90625 C 13.882812 -20.144531 14.304688 -20.476562 14.734375 -20.90625 L 14.84375 -20.828125 L 10.015625 -14.0625 L 9.90625 -14.140625 C 10.175781 -14.679688 10.351562 -15.179688 10.4375 -15.640625 C 10.53125 -16.109375 10.363281 -16.492188 9.9375 -16.796875 L -3.90625 -26.65625 L 6.875 -9.109375 L -11.28125 -11.9375 L -2.3125 -5.546875 C -1.25 -4.796875 -0.375 -4.296875 0.3125 -4.046875 C 1.007812 -3.804688 1.5625 -3.742188 1.96875 -3.859375 C 2.382812 -3.984375 2.734375 -4.179688 3.015625 -4.453125 L 3.125 -4.375 L 0.25 -0.359375 L 0.140625 -0.4375 C 0.316406 -0.800781 0.429688 -1.164062 0.484375 -1.53125 C 0.535156 -1.894531 0.375 -2.332031 0 -2.84375 C -0.382812 -3.363281 -1.101562 -4.003906 -2.15625 -4.765625 L -12.546875 -12.15625 C -13.148438 -12.257812 -13.734375 -12.300781 -14.296875 -12.28125 C -14.859375 -12.269531 -15.507812 -12.148438 -16.25 -11.921875 L -13.3125 -16.046875 L 3.59375 -13.40625 L -5.125 -27.53125 L -1.5625 -32.515625 Z M -1.4375 -32.421875 "/></g></g></g><g fill="#000000" fill-opacity="1"><g transform="translate(69.002621, 91.746696)"><g><path d="M 12.03125 -16.921875 C 12.90625 -16.535156 13.609375 -16.265625 14.140625 -16.109375 C 14.679688 -15.953125 15.128906 -15.898438 15.484375 -15.953125 C 15.835938 -16.015625 16.1875 -16.171875 16.53125 -16.421875 L 16.609375 -16.34375 L 10.125 -9.96875 L 10.046875 -10.046875 C 10.484375 -10.554688 10.789062 -11.039062 10.96875 -11.5 C 11.144531 -11.957031 11.113281 -12.390625 10.875 -12.796875 C 10.632812 -13.203125 10.09375 -13.585938 9.25 -13.953125 L 7.828125 -14.5625 L -0.015625 -6.84375 L 0.546875 -5.390625 C 0.859375 -4.546875 1.203125 -4 1.578125 -3.75 C 1.960938 -3.5 2.363281 -3.4375 2.78125 -3.5625 C 3.195312 -3.6875 3.640625 -3.898438 4.109375 -4.203125 L 4.1875 -4.125 L 0.40625 -0.40625 L 0.328125 -0.484375 C 0.523438 -0.847656 0.664062 -1.210938 0.75 -1.578125 C 0.832031 -1.953125 0.820312 -2.398438 0.71875 -2.921875 C 0.625 -3.453125 0.410156 -4.128906 0.078125 -4.953125 L -5.609375 -19.734375 L -6.25 -20.296875 L -6.078125 -20.90625 L -4.921875 -24.578125 C -4.867188 -24.523438 -4.726562 -24.425781 -4.5 -24.28125 C -4.269531 -24.144531 -3.78125 -23.921875 -3.03125 -23.609375 Z M -0.234375 -7.359375 L 7.3125 -14.796875 L -5.203125 -20.25 Z M -0.234375 -7.359375 "/></g></g></g><g fill="#000000" fill-opacity="1"><g transform="translate(87.428359, 73.961466)"><g><path d="M 11.875 -13.078125 C 12.789062 -12.785156 13.5625 -12.585938 14.1875 -12.484375 C 14.8125 -12.378906 15.382812 -12.335938 15.90625 -12.359375 C 16.425781 -12.390625 16.96875 -12.453125 17.53125 -12.546875 L 17.578125 -12.46875 L 12.5 -8.875 L 12.21875 -9.265625 L 3.40625 -12.34375 L 0.671875 -10.40625 L 4.40625 -5.140625 C 4.707031 -4.710938 5.085938 -4.539062 5.546875 -4.625 C 6.015625 -4.71875 6.519531 -4.898438 7.0625 -5.171875 L 7.140625 -5.0625 L 0.359375 -0.25 L 0.28125 -0.359375 C 0.707031 -0.773438 1.039062 -1.1875 1.28125 -1.59375 C 1.519531 -2.007812 1.488281 -2.429688 1.1875 -2.859375 L -8.5625 -16.609375 C -8.863281 -17.023438 -9.25 -17.1875 -9.71875 -17.09375 C -10.1875 -17.007812 -10.679688 -16.828125 -11.203125 -16.546875 L -11.296875 -16.671875 L -2.453125 -22.953125 C -0.367188 -24.429688 1.503906 -25.222656 3.171875 -25.328125 C 4.835938 -25.441406 6.210938 -24.734375 7.296875 -23.203125 C 8.128906 -22.035156 8.453125 -20.71875 8.265625 -19.25 C 8.078125 -17.789062 7.410156 -16.363281 6.265625 -14.96875 Z M -6 -19.796875 L 0.015625 -11.328125 C 1.503906 -11.859375 2.867188 -12.5625 4.109375 -13.4375 C 4.898438 -14 5.484375 -14.570312 5.859375 -15.15625 C 6.234375 -15.75 6.34375 -16.429688 6.1875 -17.203125 C 6.039062 -17.984375 5.582031 -18.910156 4.8125 -19.984375 C 4.375 -20.617188 3.890625 -21.1875 3.359375 -21.6875 C 2.828125 -22.1875 2.222656 -22.554688 1.546875 -22.796875 C 0.878906 -23.046875 0.132812 -23.085938 -0.6875 -22.921875 C -1.519531 -22.765625 -2.4375 -22.332031 -3.4375 -21.625 Z M -6 -19.796875 "/></g></g></g><g fill="#000000" fill-opacity="1"><g transform="translate(106.24495, 60.688885)"><g><path d="M 5.75 -25.3125 L 11.4375 -28.125 L 11.484375 -28.015625 C 10.859375 -27.515625 10.335938 -26.96875 9.921875 -26.375 C 9.515625 -25.78125 9.257812 -24.894531 9.15625 -23.71875 L 8.296875 -13.6875 L 11.375 -7.453125 C 11.613281 -6.984375 11.984375 -6.765625 12.484375 -6.796875 C 12.984375 -6.828125 13.582031 -6.96875 14.28125 -7.21875 L 14.34375 -7.09375 L 6.375 -3.15625 L 6.3125 -3.28125 C 6.925781 -3.675781 7.394531 -4.0625 7.71875 -4.4375 C 8.039062 -4.820312 8.082031 -5.25 7.84375 -5.71875 L 5.015625 -11.453125 L -4.640625 -17.25 C -5.503906 -17.757812 -6.242188 -18.070312 -6.859375 -18.1875 C -7.484375 -18.300781 -8.023438 -18.28125 -8.484375 -18.125 L -8.53125 -18.234375 L -3.28125 -20.84375 L -0.71875 -19.1875 L 7.765625 -14.03125 L 8.5 -23.4375 C 8.570312 -24.238281 8.503906 -24.789062 8.296875 -25.09375 C 8.097656 -25.40625 7.78125 -25.546875 7.34375 -25.515625 C 6.914062 -25.492188 6.398438 -25.390625 5.796875 -25.203125 Z M 5.75 -25.3125 "/></g></g></g><g fill="#000000" fill-opacity="1"><g transform="translate(129.241876, 49.985893)"><g/></g></g><g fill="#000000" fill-opacity="1"><g transform="translate(136.690153, 46.936045)"><g><path d="M 4.53125 -21.859375 C 8.144531 -22.753906 11.09375 -22.625 13.375 -21.46875 C 15.65625 -20.3125 17.160156 -18.257812 17.890625 -15.3125 C 18.429688 -13.125 18.390625 -11.132812 17.765625 -9.34375 C 17.140625 -7.550781 16.046875 -6.046875 14.484375 -4.828125 C 12.929688 -3.609375 11.035156 -2.722656 8.796875 -2.171875 L 0.421875 -0.109375 L 0.390625 -0.25 C 0.921875 -0.582031 1.351562 -0.957031 1.6875 -1.375 C 2.03125 -1.800781 2.140625 -2.269531 2.015625 -2.78125 L -1.890625 -18.578125 C -2.015625 -19.078125 -2.304688 -19.375 -2.765625 -19.46875 C -3.234375 -19.5625 -3.769531 -19.578125 -4.375 -19.515625 L -4.40625 -19.65625 Z M 10.09375 -3.03125 C 11.320312 -3.332031 12.335938 -3.84375 13.140625 -4.5625 C 13.941406 -5.289062 14.445312 -6.3125 14.65625 -7.625 C 14.875 -8.9375 14.722656 -10.644531 14.203125 -12.75 C 13.691406 -14.820312 12.960938 -16.5625 12.015625 -17.96875 C 11.066406 -19.382812 9.882812 -20.378906 8.46875 -20.953125 C 7.050781 -21.535156 5.398438 -21.59375 3.515625 -21.125 L 1.65625 -20.671875 L 6.0625 -2.875 C 6.644531 -2.75 7.273438 -2.695312 7.953125 -2.71875 C 8.628906 -2.738281 9.34375 -2.84375 10.09375 -3.03125 Z M 10.09375 -3.03125 "/></g></g></g><g fill="#000000" fill-opacity="1"><g transform="translate(160.084633, 41.425635)"><g><path d="M 17.578125 -7.828125 L 17.703125 -7.765625 L 16.75 -1.59375 L 16.640625 -0.9375 L 15.59375 -1.484375 L 0.4375 -0.046875 L 0.421875 -0.1875 C 0.992188 -0.445312 1.476562 -0.757812 1.875 -1.125 C 2.269531 -1.5 2.445312 -1.941406 2.40625 -2.453125 L 0.859375 -18.671875 C 0.804688 -19.171875 0.554688 -19.5 0.109375 -19.65625 C -0.335938 -19.820312 -0.859375 -19.914062 -1.453125 -19.9375 L -1.46875 -20.09375 L 14.265625 -21.59375 L 15.796875 -16.65625 L 15.703125 -16.578125 C 14.867188 -17.578125 14.125 -18.394531 13.46875 -19.03125 C 12.8125 -19.664062 12.09375 -20.101562 11.3125 -20.34375 C 10.53125 -20.59375 9.519531 -20.660156 8.28125 -20.546875 L 4.671875 -20.203125 L 5.546875 -10.875 L 7.9375 -11.09375 C 9.132812 -11.207031 10.085938 -11.398438 10.796875 -11.671875 C 11.515625 -11.953125 12.0625 -12.351562 12.4375 -12.875 C 12.8125 -13.40625 13.070312 -14.128906 13.21875 -15.046875 L 13.90625 -7.796875 C 13.59375 -8.648438 13.203125 -9.300781 12.734375 -9.75 C 12.265625 -10.195312 11.65625 -10.484375 10.90625 -10.609375 C 10.15625 -10.742188 9.179688 -10.753906 7.984375 -10.640625 L 5.59375 -10.421875 L 6.484375 -1.078125 L 10.265625 -1.4375 C 11.492188 -1.550781 12.53125 -1.859375 13.375 -2.359375 C 14.226562 -2.859375 14.972656 -3.554688 15.609375 -4.453125 C 16.253906 -5.359375 16.910156 -6.484375 17.578125 -7.828125 Z M 17.578125 -7.828125 "/></g></g></g><g fill="#000000" fill-opacity="1"><g transform="translate(180.776695, 39.612751)"><g><path d="M 10.578125 -11.609375 C 11.984375 -11.222656 13.125 -10.769531 14 -10.25 C 14.875 -9.738281 15.539062 -9.191406 16 -8.609375 C 16.457031 -8.023438 16.765625 -7.429688 16.921875 -6.828125 C 17.085938 -6.234375 17.160156 -5.671875 17.140625 -5.140625 C 17.085938 -3.972656 16.722656 -2.929688 16.046875 -2.015625 C 15.378906 -1.097656 14.441406 -0.390625 13.234375 0.109375 C 12.023438 0.609375 10.582031 0.828125 8.90625 0.765625 C 7.15625 0.691406 5.628906 0.367188 4.328125 -0.203125 C 3.023438 -0.785156 2 -1.46875 1.25 -2.25 L 4.046875 -6.34375 C 3.921875 -5.351562 4.007812 -4.453125 4.3125 -3.640625 C 4.613281 -2.835938 5.054688 -2.144531 5.640625 -1.5625 C 6.234375 -0.988281 6.914062 -0.535156 7.6875 -0.203125 C 8.46875 0.117188 9.253906 0.296875 10.046875 0.328125 C 10.890625 0.367188 11.582031 0.265625 12.125 0.015625 C 12.664062 -0.222656 13.085938 -0.539062 13.390625 -0.9375 C 13.691406 -1.34375 13.910156 -1.773438 14.046875 -2.234375 C 14.179688 -2.691406 14.253906 -3.113281 14.265625 -3.5 C 14.304688 -4.351562 14.128906 -5.03125 13.734375 -5.53125 C 13.335938 -6.039062 12.75 -6.460938 11.96875 -6.796875 C 11.1875 -7.140625 10.234375 -7.472656 9.109375 -7.796875 C 7.253906 -8.304688 5.828125 -8.941406 4.828125 -9.703125 C 3.835938 -10.472656 3.148438 -11.296875 2.765625 -12.171875 C 2.390625 -13.054688 2.21875 -13.910156 2.25 -14.734375 C 2.300781 -15.921875 2.65625 -16.925781 3.3125 -17.75 C 3.976562 -18.582031 4.890625 -19.203125 6.046875 -19.609375 C 7.210938 -20.023438 8.570312 -20.203125 10.125 -20.140625 C 11.789062 -20.078125 13.210938 -19.769531 14.390625 -19.21875 C 15.566406 -18.664062 16.519531 -18.007812 17.25 -17.25 L 14.375 -13.15625 C 14.53125 -14.132812 14.472656 -15.019531 14.203125 -15.8125 C 13.941406 -16.613281 13.535156 -17.300781 12.984375 -17.875 C 12.441406 -18.457031 11.796875 -18.910156 11.046875 -19.234375 C 10.304688 -19.566406 9.546875 -19.75 8.765625 -19.78125 C 7.859375 -19.8125 7.144531 -19.660156 6.625 -19.328125 C 6.101562 -18.992188 5.734375 -18.5625 5.515625 -18.03125 C 5.304688 -17.507812 5.191406 -16.976562 5.171875 -16.4375 C 5.128906 -15.4375 5.351562 -14.628906 5.84375 -14.015625 C 6.34375 -13.398438 7.007812 -12.910156 7.84375 -12.546875 C 8.6875 -12.191406 9.597656 -11.878906 10.578125 -11.609375 Z M 10.578125 -11.609375 "/></g></g></g><g fill="#000000" fill-opacity="1"><g transform="translate(200.660715, 40.282713)"><g><path d="M 16.078125 -17.78125 C 17.617188 -17.488281 19 -16.972656 20.21875 -16.234375 C 21.445312 -15.503906 22.46875 -14.597656 23.28125 -13.515625 C 24.09375 -12.441406 24.648438 -11.210938 24.953125 -9.828125 C 25.265625 -8.453125 25.265625 -6.972656 24.953125 -5.390625 C 24.648438 -3.816406 24.097656 -2.445312 23.296875 -1.28125 C 22.492188 -0.113281 21.507812 0.816406 20.34375 1.515625 C 19.1875 2.222656 17.90625 2.679688 16.5 2.890625 C 15.09375 3.109375 13.617188 3.070312 12.078125 2.78125 C 10.546875 2.476562 9.164062 1.960938 7.9375 1.234375 C 6.71875 0.503906 5.695312 -0.398438 4.875 -1.484375 C 4.050781 -2.578125 3.488281 -3.8125 3.1875 -5.1875 C 2.882812 -6.570312 2.882812 -8.050781 3.1875 -9.625 C 3.5 -11.207031 4.050781 -12.582031 4.84375 -13.75 C 5.644531 -14.914062 6.628906 -15.84375 7.796875 -16.53125 C 8.972656 -17.226562 10.265625 -17.6875 11.671875 -17.90625 C 13.078125 -18.125 14.546875 -18.082031 16.078125 -17.78125 Z M 13.375 2.5 C 14.5 2.71875 15.546875 2.570312 16.515625 2.0625 C 17.484375 1.5625 18.3125 0.765625 19 -0.328125 C 19.695312 -1.429688 20.195312 -2.765625 20.5 -4.328125 C 20.769531 -5.742188 20.847656 -7.175781 20.734375 -8.625 C 20.628906 -10.070312 20.328125 -11.425781 19.828125 -12.6875 C 19.328125 -13.945312 18.648438 -15.007812 17.796875 -15.875 C 16.953125 -16.738281 15.945312 -17.28125 14.78125 -17.5 C 13.65625 -17.71875 12.609375 -17.582031 11.640625 -17.09375 C 10.671875 -16.601562 9.84375 -15.8125 9.15625 -14.71875 C 8.46875 -13.625 7.972656 -12.296875 7.671875 -10.734375 C 7.398438 -9.316406 7.316406 -7.878906 7.421875 -6.421875 C 7.535156 -4.960938 7.84375 -3.601562 8.34375 -2.34375 C 8.84375 -1.082031 9.515625 -0.0195312 10.359375 0.84375 C 11.203125 1.71875 12.207031 2.269531 13.375 2.5 Z M 13.375 2.5 "/></g></g></g><g fill="#000000" fill-opacity="1"><g transform="translate(226.604433, 45.661391)"><g><path d="M 25.796875 -11.96875 L 22.015625 -7.03125 L 21.921875 -7.0625 C 22.492188 -8.25 22.726562 -9.289062 22.625 -10.1875 C 22.53125 -11.082031 22.164062 -11.84375 21.53125 -12.46875 C 20.90625 -13.09375 20.085938 -13.59375 19.078125 -13.96875 L 18.0625 -14.34375 L 11.921875 2.34375 C 11.703125 2.945312 11.773438 3.4375 12.140625 3.8125 C 12.515625 4.195312 13.097656 4.582031 13.890625 4.96875 L 13.84375 5.09375 L 4.96875 1.828125 L 5.015625 1.703125 C 5.867188 1.921875 6.554688 2.003906 7.078125 1.953125 C 7.609375 1.910156 7.984375 1.585938 8.203125 0.984375 L 14.34375 -15.703125 C 13.019531 -16.191406 11.859375 -16.414062 10.859375 -16.375 C 9.859375 -16.34375 8.921875 -16.0625 8.046875 -15.53125 C 7.171875 -15.007812 6.25 -14.226562 5.28125 -13.1875 L 5.171875 -13.234375 L 8.109375 -18.484375 Z M 25.796875 -11.96875 "/></g></g></g><g fill="#000000" fill-opacity="1"><g transform="translate(247.448001, 53.536733)"><g><path d="M 18.953125 3.265625 L 19.03125 3.359375 L 14.8125 7.984375 L 14.359375 8.46875 L 13.796875 7.4375 L 0.390625 0.203125 L 0.453125 0.078125 C 1.078125 0.171875 1.65625 0.175781 2.1875 0.09375 C 2.726562 0.0195312 3.117188 -0.242188 3.359375 -0.703125 L 11.09375 -15.03125 C 11.332031 -15.476562 11.304688 -15.894531 11.015625 -16.28125 C 10.734375 -16.675781 10.351562 -17.046875 9.875 -17.390625 L 9.9375 -17.53125 L 23.859375 -10.03125 L 22.390625 -5.0625 L 22.265625 -5.0625 C 22.140625 -6.351562 21.976562 -7.441406 21.78125 -8.328125 C 21.582031 -9.222656 21.222656 -9.988281 20.703125 -10.625 C 20.191406 -11.269531 19.390625 -11.890625 18.296875 -12.484375 L 15.109375 -14.203125 L 10.671875 -5.953125 L 12.78125 -4.8125 C 13.84375 -4.238281 14.742188 -3.863281 15.484375 -3.6875 C 16.222656 -3.519531 16.894531 -3.554688 17.5 -3.796875 C 18.101562 -4.035156 18.710938 -4.488281 19.328125 -5.15625 L 15.875 1.25 C 16.101562 0.351562 16.144531 -0.40625 16 -1.03125 C 15.863281 -1.65625 15.519531 -2.234375 14.96875 -2.765625 C 14.425781 -3.296875 13.625 -3.847656 12.5625 -4.421875 L 10.453125 -5.5625 L 6 2.703125 L 9.34375 4.515625 C 10.425781 5.097656 11.457031 5.414062 12.4375 5.46875 C 13.414062 5.53125 14.421875 5.363281 15.453125 4.96875 C 16.492188 4.582031 17.660156 4.015625 18.953125 3.265625 Z M 18.953125 3.265625 "/></g></g></g><g fill="#000000" fill-opacity="1"><g transform="translate(265.656999, 63.525697)"><g><path d="M 17.71875 5.578125 L 17.78125 5.671875 L 13.109375 9.546875 L 12.59375 9.953125 L 12.1875 8.875 L 0.359375 0.25 L 0.4375 0.140625 C 1.039062 0.328125 1.675781 0.328125 2.34375 0.140625 C 3.007812 -0.046875 3.566406 -0.445312 4.015625 -1.0625 L 13.015625 -13.40625 C 13.304688 -13.820312 13.335938 -14.238281 13.109375 -14.65625 C 12.878906 -15.082031 12.550781 -15.5 12.125 -15.90625 L 12.203125 -16.03125 L 19.140625 -10.96875 L 19.0625 -10.84375 C 18.425781 -11.21875 17.863281 -11.457031 17.375 -11.5625 C 16.882812 -11.664062 16.492188 -11.507812 16.203125 -11.09375 L 5.578125 3.5 L 7.359375 4.8125 C 8.328125 5.507812 9.222656 6.003906 10.046875 6.296875 C 10.878906 6.597656 11.6875 6.742188 12.46875 6.734375 C 13.25 6.722656 14.054688 6.601562 14.890625 6.375 C 15.734375 6.15625 16.675781 5.890625 17.71875 5.578125 Z M 17.71875 5.578125 "/></g></g></g><g fill="#000000" fill-opacity="1"><g transform="translate(282.012802, 75.928851)"><g/></g></g><g fill="#000000" fill-opacity="1"><g transform="translate(288.298298, 81.508277)"><g><path d="M 15.109375 -13.359375 L 21.015625 -7.375 L 20.90625 -7.265625 C 20.425781 -7.640625 19.960938 -7.90625 19.515625 -8.0625 C 19.066406 -8.226562 18.660156 -8.132812 18.296875 -7.78125 L 7.15625 3.203125 C 6.53125 3.816406 6 4.351562 5.5625 4.8125 C 5.125 5.269531 4.773438 5.679688 4.515625 6.046875 C 3.210938 6.242188 1.757812 6.207031 0.15625 5.9375 C -1.4375 5.664062 -2.972656 5.109375 -4.453125 4.265625 L -4.4375 4.1875 C -3.488281 4.519531 -2.628906 4.664062 -1.859375 4.625 C -1.085938 4.582031 -0.335938 4.34375 0.390625 3.90625 C 1.117188 3.46875 1.910156 2.828125 2.765625 1.984375 L 15.53125 -10.59375 C 15.894531 -10.945312 15.992188 -11.351562 15.828125 -11.8125 C 15.671875 -12.269531 15.394531 -12.75 15 -13.25 Z M 15.109375 -13.359375 "/></g></g></g><g fill="#000000" fill-opacity="1"><g transform="translate(296.92975, 90.099029)"><g><path d="M 16.109375 10.515625 L 16.125 10.640625 L 10.4375 13.203125 L 9.828125 13.453125 L 9.71875 12.296875 L 0.265625 0.34375 L 0.375 0.25 C 0.914062 0.59375 1.445312 0.832031 1.96875 0.96875 C 2.488281 1.101562 2.953125 1.007812 3.359375 0.6875 L 16.140625 -9.40625 C 16.546875 -9.71875 16.691406 -10.101562 16.578125 -10.5625 C 16.472656 -11.03125 16.265625 -11.523438 15.953125 -12.046875 L 16.0625 -12.140625 L 25.875 0.265625 L 22.5625 4.234375 L 22.4375 4.1875 C 22.832031 2.945312 23.113281 1.878906 23.28125 0.984375 C 23.457031 0.0976562 23.4375 -0.738281 23.21875 -1.53125 C 23.007812 -2.332031 22.519531 -3.21875 21.75 -4.1875 L 19.5 -7.03125 L 12.140625 -1.21875 L 13.640625 0.65625 C 14.378906 1.601562 15.054688 2.296875 15.671875 2.734375 C 16.285156 3.179688 16.914062 3.414062 17.5625 3.4375 C 18.21875 3.46875 18.960938 3.300781 19.796875 2.9375 L 14.078125 7.453125 C 14.640625 6.722656 14.976562 6.039062 15.09375 5.40625 C 15.21875 4.769531 15.128906 4.097656 14.828125 3.390625 C 14.535156 2.691406 14.019531 1.867188 13.28125 0.921875 L 11.78125 -0.953125 L 4.421875 4.875 L 6.78125 7.84375 C 7.550781 8.820312 8.375 9.523438 9.25 9.953125 C 10.125 10.390625 11.113281 10.632812 12.21875 10.6875 C 13.320312 10.75 14.617188 10.691406 16.109375 10.515625 Z M 16.109375 10.515625 "/></g></g></g><g fill="#000000" fill-opacity="1"><g transform="translate(309.711556, 106.364115)"><g><path d="M 25.34375 3.578125 L 27.8125 7.84375 L 27.671875 7.921875 C 27.453125 7.609375 27.175781 7.347656 26.84375 7.140625 C 26.519531 6.929688 26.046875 6.894531 25.421875 7.03125 C 24.804688 7.175781 23.9375 7.570312 22.8125 8.21875 L 13.421875 13.65625 C 12.117188 14.40625 11.113281 15.003906 10.40625 15.453125 C 9.707031 15.898438 9.132812 16.257812 8.6875 16.53125 L 8.609375 16.515625 L 16.609375 -5.578125 L 6.15625 0.46875 C 5.03125 1.113281 4.210938 1.695312 3.703125 2.21875 C 3.191406 2.75 2.90625 3.222656 2.84375 3.640625 C 2.78125 4.066406 2.820312 4.460938 2.96875 4.828125 L 2.84375 4.90625 L 0.359375 0.625 L 0.484375 0.546875 C 0.742188 0.867188 1.03125 1.125 1.34375 1.3125 C 1.65625 1.507812 2.117188 1.546875 2.734375 1.421875 C 3.359375 1.296875 4.234375 0.90625 5.359375 0.25 L 16.90625 -6.421875 C 17.164062 -7.128906 17.351562 -7.742188 17.46875 -8.265625 C 17.582031 -8.796875 17.617188 -9.320312 17.578125 -9.84375 L 20.46875 -4.84375 C 20.394531 -4.6875 20.316406 -4.5 20.234375 -4.28125 C 20.148438 -4.070312 20.019531 -3.800781 19.84375 -3.46875 L 14.09375 12.609375 L 22.03125 8.03125 C 23.15625 7.375 23.96875 6.78125 24.46875 6.25 C 24.976562 5.726562 25.269531 5.253906 25.34375 4.828125 C 25.414062 4.410156 25.367188 4.019531 25.203125 3.65625 Z M 25.34375 3.578125 "/></g></g></g><g fill="#000000" fill-opacity="1"><g transform="translate(321.104456, 126.291995)"><g><path d="M 3.921875 5.515625 C 3.429688 5.703125 3.171875 6.035156 3.140625 6.515625 C 3.117188 6.992188 3.171875 7.523438 3.296875 8.109375 L 3.171875 8.15625 L 0.15625 0.40625 L 0.28125 0.359375 C 0.582031 0.878906 0.898438 1.304688 1.234375 1.640625 C 1.578125 1.972656 1.992188 2.046875 2.484375 1.859375 L 18.1875 -4.265625 C 18.664062 -4.453125 18.921875 -4.785156 18.953125 -5.265625 C 18.984375 -5.742188 18.925781 -6.269531 18.78125 -6.84375 L 18.921875 -6.90625 L 21.9375 0.84375 L 21.796875 0.90625 C 21.515625 0.375 21.203125 -0.0546875 20.859375 -0.390625 C 20.515625 -0.722656 20.101562 -0.796875 19.625 -0.609375 Z M 7.8125 20.046875 L 5.5625 14.28125 L 6.015625 14.109375 L 11.6875 4.25 L 11.125 2.828125 L 23.21875 8.390625 C 23.457031 8.515625 23.664062 8.5625 23.84375 8.53125 C 24.03125 8.507812 24.144531 8.347656 24.1875 8.046875 C 24.238281 7.753906 24.160156 7.222656 23.953125 6.453125 L 24.125 6.4375 L 26.265625 11.9375 L 26.09375 11.9375 C 25.726562 11.269531 25.175781 10.625 24.4375 10 C 23.707031 9.375 22.550781 8.6875 20.96875 7.9375 L 15.140625 5.25 L 9.796875 14.6875 C 9.316406 15.582031 8.9375 16.328125 8.65625 16.921875 C 8.375 17.515625 8.175781 18.039062 8.0625 18.5 C 7.945312 18.96875 7.863281 19.484375 7.8125 20.046875 Z M 7.8125 20.046875 "/></g></g></g><g fill="#000000" fill-opacity="1"><g transform="translate(329.296834, 148.652899)"><g><path d="M 0.109375 0.421875 L 0.25 0.390625 C 0.46875 0.941406 0.726562 1.398438 1.03125 1.765625 C 1.332031 2.140625 1.738281 2.257812 2.25 2.125 L 18.5625 -2.125 C 19.050781 -2.257812 19.335938 -2.5625 19.421875 -3.03125 C 19.515625 -3.507812 19.519531 -4.039062 19.4375 -4.625 L 19.59375 -4.671875 L 21.703125 3.375 L 21.546875 3.421875 C 21.328125 2.859375 21.0625 2.390625 20.75 2.015625 C 20.445312 1.648438 20.050781 1.535156 19.5625 1.671875 L 3.25 5.921875 C 2.738281 6.054688 2.441406 6.359375 2.359375 6.828125 C 2.273438 7.304688 2.273438 7.84375 2.359375 8.4375 L 2.21875 8.46875 Z M 0.109375 0.421875 "/></g></g></g><g fill="#000000" fill-opacity="1"><g transform="translate(332.385193, 159.614734)"><g><path d="M 22.15625 12.796875 L 22.859375 17.671875 L 22.703125 17.703125 C 22.617188 17.316406 22.460938 16.96875 22.234375 16.65625 C 22.003906 16.351562 21.578125 16.144531 20.953125 16.03125 C 20.328125 15.925781 19.367188 15.960938 18.078125 16.140625 L 7.34375 17.671875 C 5.851562 17.878906 4.695312 18.0625 3.875 18.21875 C 3.0625 18.375 2.394531 18.5 1.875 18.59375 L 1.828125 18.53125 L 17.484375 1.03125 L 5.53125 2.734375 C 4.238281 2.921875 3.257812 3.160156 2.59375 3.453125 C 1.925781 3.742188 1.484375 4.078125 1.265625 4.453125 C 1.054688 4.828125 0.945312 5.207031 0.9375 5.59375 L 0.796875 5.609375 L 0.09375 0.71875 L 0.234375 0.703125 C 0.359375 1.085938 0.53125 1.425781 0.75 1.71875 C 0.96875 2.019531 1.382812 2.226562 2 2.34375 C 2.625 2.457031 3.582031 2.421875 4.875 2.234375 L 18.09375 0.359375 C 18.59375 -0.191406 18.988281 -0.691406 19.28125 -1.140625 C 19.582031 -1.585938 19.816406 -2.0625 19.984375 -2.5625 L 20.796875 3.15625 C 20.671875 3.28125 20.53125 3.425781 20.375 3.59375 C 20.21875 3.757812 20 3.960938 19.71875 4.203125 L 8.359375 16.984375 L 17.421875 15.6875 C 18.710938 15.507812 19.691406 15.269531 20.359375 14.96875 C 21.023438 14.664062 21.472656 14.332031 21.703125 13.96875 C 21.929688 13.601562 22.03125 13.222656 22 12.828125 Z M 22.15625 12.796875 "/></g></g></g><g fill="#000000" fill-opacity="1"><g transform="translate(335.388734, 182.471326)"><g><path d="M 12.03125 10.125 C 11.695312 11.539062 11.289062 12.691406 10.8125 13.578125 C 10.332031 14.472656 9.800781 15.160156 9.21875 15.640625 C 8.644531 16.128906 8.0625 16.460938 7.46875 16.640625 C 6.882812 16.828125 6.328125 16.921875 5.796875 16.921875 C 4.628906 16.921875 3.578125 16.601562 2.640625 15.96875 C 1.703125 15.332031 0.957031 14.421875 0.40625 13.234375 C -0.132812 12.046875 -0.40625 10.609375 -0.40625 8.921875 C -0.40625 7.171875 -0.144531 5.632812 0.375 4.3125 C 0.90625 2.988281 1.546875 1.9375 2.296875 1.15625 L 6.5 3.796875 C 5.5 3.703125 4.601562 3.820312 3.8125 4.15625 C 3.019531 4.488281 2.34375 4.960938 1.78125 5.578125 C 1.226562 6.191406 0.800781 6.890625 0.5 7.671875 C 0.207031 8.460938 0.0625 9.257812 0.0625 10.0625 C 0.0625 10.90625 0.191406 11.59375 0.453125 12.125 C 0.722656 12.65625 1.0625 13.0625 1.46875 13.34375 C 1.882812 13.632812 2.320312 13.835938 2.78125 13.953125 C 3.25 14.066406 3.675781 14.125 4.0625 14.125 C 4.914062 14.125 5.585938 13.914062 6.078125 13.5 C 6.566406 13.09375 6.960938 12.488281 7.265625 11.6875 C 7.578125 10.894531 7.867188 9.925781 8.140625 8.78125 C 8.578125 6.914062 9.160156 5.46875 9.890625 4.4375 C 10.617188 3.414062 11.414062 2.695312 12.28125 2.28125 C 13.144531 1.875 13.988281 1.671875 14.8125 1.671875 C 16 1.679688 17.019531 2 17.875 2.625 C 18.726562 3.257812 19.382812 4.144531 19.84375 5.28125 C 20.300781 6.425781 20.53125 7.773438 20.53125 9.328125 C 20.53125 11.003906 20.273438 12.441406 19.765625 13.640625 C 19.265625 14.835938 18.644531 15.816406 17.90625 16.578125 L 13.71875 13.84375 C 14.695312 13.96875 15.578125 13.882812 16.359375 13.59375 C 17.148438 13.300781 17.820312 12.867188 18.375 12.296875 C 18.9375 11.722656 19.363281 11.054688 19.65625 10.296875 C 19.957031 9.535156 20.109375 8.765625 20.109375 7.984375 C 20.109375 7.078125 19.929688 6.367188 19.578125 5.859375 C 19.222656 5.359375 18.773438 5.007812 18.234375 4.8125 C 17.703125 4.625 17.164062 4.53125 16.625 4.53125 C 15.625 4.519531 14.828125 4.769531 14.234375 5.28125 C 13.640625 5.800781 13.179688 6.488281 12.859375 7.34375 C 12.535156 8.195312 12.257812 9.125 12.03125 10.125 Z M 12.03125 10.125 "/></g></g></g><g fill="#000000" fill-opacity="1"><g transform="translate(47.31445, 261.938191)"><g><path d="M 52.046875 17.265625 C 51.378906 16.472656 50.691406 15.851562 49.984375 15.40625 C 49.285156 14.96875 48.5625 14.988281 47.8125 15.46875 L 23.203125 31.140625 C 22.453125 31.617188 22.128906 32.265625 22.234375 33.078125 C 22.347656 33.898438 22.625 34.78125 23.0625 35.71875 L 22.859375 35.859375 L 16.0625 25.1875 L 16.265625 25.046875 C 16.929688 25.847656 17.613281 26.46875 18.3125 26.90625 C 19.007812 27.34375 19.734375 27.320312 20.484375 26.84375 L 45.296875 11.03125 L 10.15625 16.96875 L 26.484375 -10.3125 L 10.40625 -0.0625 C 8.5 1.15625 7.128906 2.234375 6.296875 3.171875 C 5.460938 4.109375 5.003906 4.945312 4.921875 5.6875 C 4.835938 6.4375 4.929688 7.113281 5.203125 7.71875 L 5 7.859375 L 0.40625 0.625 L 0.609375 0.484375 C 1.066406 1.035156 1.570312 1.460938 2.125 1.765625 C 2.6875 2.078125 3.5 2.097656 4.5625 1.828125 C 5.632812 1.566406 7.125 0.832031 9.03125 -0.375 L 27.625 -12.234375 C 28.195312 -13.140625 28.648438 -14.046875 28.984375 -14.953125 C 29.328125 -15.867188 29.550781 -16.988281 29.65625 -18.3125 L 33.515625 -12.265625 L 17.375 14.75 L 47.484375 9.640625 L 52.25 17.125 Z M 52.046875 17.265625 "/></g></g></g><g fill="#000000" fill-opacity="1"><g transform="translate(77.48347, 304.848047)"><g><path d="M 29.84375 11.96875 L 29.96875 12.1875 L 21.96875 18.0625 L 21.046875 18.71875 L 20.421875 16.78125 L 0.578125 0.46875 L 0.734375 0.28125 C 1.765625 0.65625 2.742188 0.859375 3.671875 0.890625 C 4.609375 0.929688 5.363281 0.609375 5.9375 -0.078125 L 23.828125 -21.859375 C 24.398438 -22.546875 24.507812 -23.257812 24.15625 -24 C 23.800781 -24.75 23.265625 -25.503906 22.546875 -26.265625 L 22.71875 -26.453125 L 43.34375 -9.5 L 39.578125 -2.34375 L 39.359375 -2.40625 C 39.523438 -4.320312 39.570312 -6 39.5 -7.4375 C 39.4375 -8.875 39.113281 -10.179688 38.53125 -11.359375 C 37.957031 -12.535156 36.953125 -13.710938 35.515625 -14.890625 L 29.046875 -20.203125 L 18.734375 -7.65625 L 24.125 -3.234375 C 25.476562 -2.117188 26.65625 -1.367188 27.65625 -0.984375 C 28.65625 -0.597656 29.601562 -0.507812 30.5 -0.71875 C 31.394531 -0.925781 32.390625 -1.375 33.484375 -2.0625 L 26.59375 6.328125 C 27.0625 5.117188 27.304688 4.050781 27.328125 3.125 C 27.359375 2.207031 27.085938 1.296875 26.515625 0.390625 C 25.941406 -0.503906 24.976562 -1.507812 23.625 -2.625 L 18.234375 -7.046875 L 7.921875 5.5 L 15.15625 11.4375 C 16.59375 12.625 18.007812 13.34375 19.40625 13.59375 C 20.8125 13.851562 22.347656 13.8125 24.015625 13.46875 C 25.691406 13.132812 27.632812 12.632812 29.84375 11.96875 Z M 29.84375 11.96875 "/></g></g></g><g fill="#000000" fill-opacity="1"><g transform="translate(109.549623, 330.469233)"><g><path d="M 52.203125 -16.75 C 51.191406 -17 50.273438 -17.097656 49.453125 -17.046875 C 48.628906 -17.003906 48.054688 -16.5625 47.734375 -15.71875 L 37.109375 11.4375 C 36.785156 12.28125 36.910156 13 37.484375 13.59375 C 38.054688 14.195312 38.796875 14.75 39.703125 15.25 L 39.609375 15.484375 L 27.828125 10.875 L 27.921875 10.640625 C 28.929688 10.890625 29.84375 10.988281 30.65625 10.9375 C 31.476562 10.882812 32.050781 10.4375 32.375 9.59375 L 43.09375 -17.796875 L 18.203125 7.703125 L 15.3125 -23.96875 L 8.359375 -6.1875 C 7.535156 -4.082031 7.066406 -2.40625 6.953125 -1.15625 C 6.835938 0.09375 6.960938 1.039062 7.328125 1.6875 C 7.703125 2.34375 8.179688 2.832031 8.765625 3.15625 L 8.671875 3.390625 L 0.703125 0.265625 L 0.796875 0.03125 C 1.472656 0.207031 2.128906 0.253906 2.765625 0.171875 C 3.398438 0.0976562 4.066406 -0.359375 4.765625 -1.203125 C 5.472656 -2.054688 6.238281 -3.53125 7.0625 -5.625 L 15.09375 -26.171875 C 15.007812 -27.242188 14.835938 -28.242188 14.578125 -29.171875 C 14.328125 -30.109375 13.851562 -31.144531 13.15625 -32.28125 L 19.828125 -29.671875 L 22.703125 1.65625 L 44.03125 -20.21875 L 52.296875 -16.984375 Z M 52.203125 -16.75 "/></g></g></g><g fill="#000000" fill-opacity="1"><g transform="translate(159.917325, 348.087343)"><g><path d="M 21.625 -35.203125 C 24.207031 -35.160156 26.617188 -34.703125 28.859375 -33.828125 C 31.109375 -32.953125 33.082031 -31.710938 34.78125 -30.109375 C 36.476562 -28.503906 37.789062 -26.570312 38.71875 -24.3125 C 39.644531 -22.0625 40.082031 -19.539062 40.03125 -16.75 C 39.976562 -13.96875 39.453125 -11.460938 38.453125 -9.234375 C 37.453125 -7.003906 36.078125 -5.113281 34.328125 -3.5625 C 32.578125 -2.019531 30.5625 -0.851562 28.28125 -0.0625 C 26.007812 0.726562 23.582031 1.101562 21 1.0625 C 18.40625 1.019531 15.976562 0.5625 13.71875 -0.3125 C 11.46875 -1.1875 9.488281 -2.421875 7.78125 -4.015625 C 6.082031 -5.617188 4.769531 -7.550781 3.84375 -9.8125 C 2.914062 -12.082031 2.476562 -14.609375 2.53125 -17.390625 C 2.582031 -20.179688 3.109375 -22.6875 4.109375 -24.90625 C 5.109375 -27.125 6.484375 -29.007812 8.234375 -30.5625 C 9.992188 -32.113281 12.015625 -33.285156 14.296875 -34.078125 C 16.585938 -34.867188 19.03125 -35.242188 21.625 -35.203125 Z M 23 0.1875 C 25.289062 0.226562 27.300781 -0.335938 29.03125 -1.515625 C 30.769531 -2.691406 32.117188 -4.34375 33.078125 -6.46875 C 34.046875 -8.601562 34.554688 -11.078125 34.609375 -13.890625 C 34.648438 -16.378906 34.304688 -18.835938 33.578125 -21.265625 C 32.859375 -23.691406 31.832031 -25.875 30.5 -27.8125 C 29.175781 -29.757812 27.585938 -31.320312 25.734375 -32.5 C 23.878906 -33.6875 21.820312 -34.296875 19.5625 -34.328125 C 17.269531 -34.367188 15.265625 -33.796875 13.546875 -32.609375 C 11.835938 -31.429688 10.492188 -29.789062 9.515625 -27.6875 C 8.535156 -25.582031 8.019531 -23.117188 7.96875 -20.296875 C 7.925781 -17.765625 8.265625 -15.296875 8.984375 -12.890625 C 9.703125 -10.492188 10.726562 -8.3125 12.0625 -6.34375 C 13.394531 -4.382812 14.992188 -2.8125 16.859375 -1.625 C 18.734375 -0.445312 20.78125 0.15625 23 0.1875 Z M 23 0.1875 "/></g></g></g><g fill="#000000" fill-opacity="1"><g transform="translate(211.232207, 346.854629)"><g><path d="M 24.4375 -14.59375 C 25.789062 -13.613281 26.953125 -12.863281 27.921875 -12.34375 C 28.898438 -11.832031 29.828125 -11.46875 30.703125 -11.25 C 31.578125 -11.03125 32.488281 -10.847656 33.4375 -10.703125 L 33.484375 -10.546875 L 24.890625 -7.828125 L 24.640625 -8.640625 L 11.34375 -18.5625 L 10.90625 -18.421875 L 4.875 -16.53125 L 8.3125 -5.609375 C 8.582031 -4.753906 9.125 -4.269531 9.9375 -4.15625 C 10.757812 -4.050781 11.675781 -4.082031 12.6875 -4.25 L 12.765625 -4.015625 L 0.71875 -0.21875 L 0.640625 -0.453125 C 1.578125 -0.898438 2.347656 -1.398438 2.953125 -1.953125 C 3.566406 -2.515625 3.738281 -3.222656 3.46875 -4.078125 L -5.28125 -31.890625 C -5.550781 -32.753906 -6.09375 -33.238281 -6.90625 -33.34375 C -7.726562 -33.445312 -8.648438 -33.410156 -9.671875 -33.234375 L -9.75 -33.46875 L 6.90625 -38.71875 C 10.738281 -39.925781 14.015625 -40.160156 16.734375 -39.421875 C 19.460938 -38.679688 21.285156 -36.847656 22.203125 -33.921875 C 22.984375 -31.460938 22.820312 -29.054688 21.71875 -26.703125 C 20.613281 -24.347656 18.71875 -22.347656 16.03125 -20.703125 Z M 4.28125 -18.421875 C 6.96875 -18.492188 9.5625 -18.925781 12.0625 -19.71875 C 14.019531 -20.332031 15.5625 -21.066406 16.6875 -21.921875 C 17.820312 -22.785156 18.5 -23.914062 18.71875 -25.3125 C 18.9375 -26.707031 18.703125 -28.5 18.015625 -30.6875 C 17.628906 -31.882812 17.128906 -33.007812 16.515625 -34.0625 C 15.910156 -35.125 15.109375 -36.003906 14.109375 -36.703125 C 13.109375 -37.398438 11.835938 -37.8125 10.296875 -37.9375 C 8.765625 -38.070312 6.867188 -37.78125 4.609375 -37.0625 L -1.03125 -35.296875 Z M 4.28125 -18.421875 "/></g></g></g><g fill="#000000" fill-opacity="1"><g transform="translate(250.566676, 332.503682)"><g><path d="M 0.65625 -0.375 L 0.53125 -0.59375 C 1.363281 -1.21875 2.015625 -1.863281 2.484375 -2.53125 C 2.953125 -3.207031 2.96875 -3.9375 2.53125 -4.71875 L -11.953125 -30.046875 C -12.398438 -30.816406 -13.03125 -31.164062 -13.84375 -31.09375 C -14.664062 -31.03125 -15.5625 -30.804688 -16.53125 -30.421875 L -16.65625 -30.640625 L -5.6875 -36.90625 L -5.5625 -36.6875 C -6.375 -36.0625 -7.019531 -35.410156 -7.5 -34.734375 C -7.976562 -34.054688 -7.992188 -33.332031 -7.546875 -32.5625 L 6.9375 -7.234375 C 7.375 -6.453125 8.003906 -6.097656 8.828125 -6.171875 C 9.660156 -6.242188 10.550781 -6.472656 11.5 -6.859375 L 11.625 -6.640625 Z M 0.65625 -0.375 "/></g></g></g><g fill="#000000" fill-opacity="1"><g transform="translate(270.009354, 322.073603)"><g><path d="M 20.546875 -27.953125 C 22.015625 -27.242188 23.210938 -26.738281 24.140625 -26.4375 C 25.066406 -26.144531 25.835938 -26.039062 26.453125 -26.125 C 27.078125 -26.207031 27.691406 -26.46875 28.296875 -26.90625 L 28.4375 -26.765625 L 18.234375 -17.171875 L 18.09375 -17.3125 C 18.882812 -18.175781 19.4375 -18.992188 19.75 -19.765625 C 20.0625 -20.546875 20.015625 -21.289062 19.609375 -22 C 19.210938 -22.71875 18.296875 -23.40625 16.859375 -24.0625 L 14.4375 -25.203125 L 0.25 -11.875 L 1.15625 -9.296875 C 1.6875 -7.816406 2.269531 -6.859375 2.90625 -6.421875 C 3.539062 -5.984375 4.222656 -5.863281 4.953125 -6.0625 C 5.679688 -6.257812 6.445312 -6.601562 7.25 -7.09375 L 7.390625 -6.953125 L 0.734375 -0.6875 L 0.59375 -0.828125 C 0.957031 -1.453125 1.210938 -2.082031 1.359375 -2.71875 C 1.515625 -3.363281 1.515625 -4.140625 1.359375 -5.046875 C 1.210938 -5.960938 0.863281 -7.144531 0.3125 -8.59375 L -9.078125 -34.734375 L -9.90625 -35.453125 L -9.71875 -36.40625 L -8.421875 -41.796875 C -8.285156 -41.648438 -8.050781 -41.472656 -7.71875 -41.265625 C -7.382812 -41.054688 -6.578125 -40.65625 -5.296875 -40.0625 Z M -0.09375 -12.75 L 13.578125 -25.609375 L -8.421875 -35.84375 Z M -0.09375 -12.75 "/></g></g></g><g fill="#000000" fill-opacity="1"><g transform="translate(304.18735, 287.090716)"><g><path d="M 6.125 -30.375 L 6.3125 -30.5 L 13.453125 -23.625 L 14.265625 -22.828125 L 12.46875 -21.90625 L 0.375 -0.65625 L 0.15625 -0.78125 C 0.351562 -1.851562 0.390625 -2.851562 0.265625 -3.78125 C 0.140625 -4.707031 -0.3125 -5.390625 -1.09375 -5.828125 L -25.59375 -19.78125 C -26.363281 -20.21875 -27.082031 -20.203125 -27.75 -19.734375 C -28.425781 -19.265625 -29.078125 -18.613281 -29.703125 -17.78125 L -29.921875 -17.90625 L -23.421875 -29.328125 L -23.203125 -29.203125 C -23.710938 -28.035156 -24.007812 -27.015625 -24.09375 -26.140625 C -24.1875 -25.273438 -23.847656 -24.625 -23.078125 -24.1875 L 4.0625 -8.734375 L 7.46875 -14.71875 C 8.601562 -16.707031 9.234375 -18.503906 9.359375 -20.109375 C 9.484375 -21.710938 9.238281 -23.320312 8.625 -24.9375 C 8.019531 -26.550781 7.1875 -28.363281 6.125 -30.375 Z M 6.125 -30.375 "/></g></g></g></svg>